<svg width="130" height="21" viewBox="0 0 130 21" fill="none" xmlns="http://www.w3.org/2000/svg">
<g clip-path="url(#clip0)">
<path d="M94.1772 20.9999H83.2109V19.9016H94.1772V20.9999Z" fill="#232323"/>
<path d="M97.4784 1.86719V17.3097H101.688V18.2982H96.415V1.86719H97.4784Z" fill="#232323"/>
<path d="M114.736 12.8725H107.47L105.254 18.2763H104.169L111.103 1.31812L118.015 18.2763H116.93L114.736 12.8725ZM114.338 11.884L111.103 3.9541L107.847 11.884H114.338Z" fill="#232323"/>
<path d="M124.595 18.2762H120.363V1.86719H123.686C124.44 1.86719 125.104 1.93309 125.636 2.04292C126.168 2.17472 126.655 2.41635 127.12 2.81175C128.051 3.60254 128.494 4.7448 128.494 6.21656C128.494 7.73225 127.851 8.85254 126.589 9.57744C127.608 9.77514 128.45 10.2584 129.07 11.0053C129.69 11.7521 130.022 12.6528 130.022 13.7071C130.022 15.091 129.513 16.2333 128.494 17.112C127.519 17.8808 126.234 18.2762 124.595 18.2762ZM121.405 2.83371V9.29187H123.221C123.265 9.29187 123.376 9.29187 123.576 9.29187C123.775 9.29187 123.886 9.29187 123.93 9.29187C123.974 9.29187 124.085 9.29187 124.24 9.29187C124.417 9.29187 124.528 9.26991 124.595 9.26991C124.661 9.26991 124.772 9.24794 124.905 9.22597C125.038 9.20401 125.149 9.18204 125.237 9.16007C125.326 9.13811 125.414 9.09417 125.525 9.05024C125.636 9.00631 125.747 8.96238 125.858 8.89648C125.968 8.83058 126.057 8.76468 126.168 8.69878C126.987 8.12765 127.386 7.24899 127.386 6.06279C127.386 4.83267 126.943 3.93204 126.035 3.36091C125.481 3.00945 124.528 2.83371 123.199 2.83371H121.405ZM121.405 10.2804V17.2877H123.93C124.506 17.2877 124.927 17.2877 125.149 17.2877C125.392 17.2877 125.725 17.2218 126.168 17.1339C126.611 17.0241 126.987 16.8703 127.298 16.6726C128.383 15.9477 128.915 14.9812 128.915 13.7511C128.915 13.136 128.76 12.5429 128.472 12.0157C128.162 11.4885 127.741 11.0712 127.209 10.8076C126.5 10.4561 125.348 10.2804 123.709 10.2804H121.405Z" fill="#232323"/>
<path d="M11.4313 17.5293H9.57031V0.94458H11.4313V17.5293Z" fill="#232323"/>
<path d="M36.8199 17.5293H34.959V0.94458H36.8199V17.5293Z" fill="#232323"/>
<path d="M16.2169 5.16211L13.8242 17.5293H15.7295L17.5461 8.08366L16.2169 5.16211Z" fill="#232323"/>
<path d="M30.9047 17.5293H32.7878L29.3982 0L28.1133 2.94351L30.9047 17.5293Z" fill="#232323"/>
<path d="M27.3382 4.70084L23.284 13.9268L17.2138 0L16.5713 3.31695L20.559 12.1036V12.1255L23.284 18.2103L27.9585 7.90795L27.3382 4.70084Z" fill="#232323"/>
<path d="M1.81663 0.94458H0V17.5293H1.86094L1.81663 0.94458Z" fill="#232323"/>
<path d="M2.94629 15.8159V17.5293H6.69032V15.8159H2.94629Z" fill="#232323"/>
<path d="M76.0103 0.94458H74.2158V17.5293H76.0546L76.0103 0.94458Z" fill="#232323"/>
<path d="M77.1406 15.8159V17.5293H80.9068V15.8159H77.1406Z" fill="#232323"/>
<path d="M40.3203 4.37109V17.529H42.1812V6.30415L40.3203 4.37109Z" fill="#232323"/>
<path d="M55.2301 14.1462V0.944336H53.3691V12.2132L55.2301 14.1462Z" fill="#232323"/>
<path d="M53.369 13.7728V13.7948L40.3203 0.241455V2.81154L45.8367 8.52284H45.8145L55.23 18.276V15.7059L53.369 13.7728Z" fill="#232323"/>
<path d="M61.9647 11.0931L64.2244 5.84314L63.3161 3.66846L57.1572 17.5293H59.1954L61.2114 12.8285H67.193L66.4619 11.0931H61.9647Z" fill="#232323"/>
<path d="M64.8667 0.153809L63.9141 2.30653L64.8224 4.45925L65.7085 6.54607L68.3449 12.8285L70.3166 17.5293H72.3769L64.8667 0.153809Z" fill="#232323"/>
</g>
<defs>
<clipPath id="clip0">
<rect width="130" height="21" fill="white"/>
</clipPath>
</defs>
</svg>
