<svg width="242" height="210" viewBox="0 0 242 210" fill="none" xmlns="http://www.w3.org/2000/svg">
<path d="M63.448 82.445C63.448 78.816 60.978 75.7 57.33 75.7C53.682 75.7 51.212 78.816 51.212 82.445C51.212 86.074 53.682 89.19 57.33 89.19C60.978 89.19 63.448 86.074 63.448 82.445ZM52.409 82.445C52.409 78.892 54.689 76.669 57.33 76.669C59.971 76.669 62.251 78.892 62.251 82.445C62.251 85.998 59.971 88.221 57.33 88.221C54.689 88.221 52.409 85.998 52.409 82.445ZM66.9621 89H68.0831V83.661H71.0091C74.2201 83.661 76.2341 82.312 76.2341 79.766C76.2341 77.22 74.2201 75.89 71.0091 75.89H66.9621V89ZM71.1041 76.859C73.4031 76.859 75.0371 77.657 75.0371 79.766C75.0371 81.894 73.4031 82.711 71.1041 82.711H68.0831V76.859H71.1041ZM77.5486 76.859H82.1276V89H83.2296V76.859H87.8086V75.89H77.5486V76.859ZM91.6186 89V75.89H90.4976V89H91.6186ZM102.615 88.943L98.2637 75.89H96.0217V89H97.1427V75.947L101.475 89H103.755L108.087 75.947V89H109.208V75.89H106.966L102.615 88.943ZM114.746 89V75.89H113.625V89H114.746ZM117.99 88.031V89H127.091V88.031H119.339L126.92 76.859V75.89H118.104V76.859H125.571L117.99 88.031ZM128.566 89H129.744L131.283 84.839H137.895L139.434 89H140.612L135.729 75.89H133.449L128.566 89ZM134.589 75.947L137.534 83.87H131.644L134.589 75.947ZM143.297 89H144.418V83.262H147.287C147.477 83.262 147.648 83.262 147.838 83.243L151.163 89H152.455L149.016 83.11C151.049 82.692 152.208 81.514 152.208 79.576C152.208 77.144 150.365 75.89 147.287 75.89H143.297V89ZM147.382 76.859C149.529 76.859 151.011 77.562 151.011 79.576C151.011 81.571 149.529 82.312 147.382 82.312H144.418V76.859H147.382ZM42.6225 111.031H36.3145V98.89H35.1935V112H42.6225V111.031ZM43.5902 112H44.7682L46.3072 107.839H52.9192L54.4582 112H55.6362L50.7532 98.89H48.4732L43.5902 112ZM49.6132 98.947L52.5582 106.87H46.6682L49.6132 98.947ZM72.9027 107.022C72.9027 109.435 71.3067 111.221 68.5897 111.221C65.8347 111.221 63.5927 109.017 63.5927 105.445C63.5927 101.873 65.7967 99.669 68.5707 99.669C71.0787 99.669 72.4467 101.303 72.7507 103.108H73.8907C73.5487 100.714 71.5917 98.7 68.4757 98.7C64.7707 98.7 62.3957 101.778 62.3957 105.445C62.3957 109.112 64.8087 112.19 68.4377 112.19C70.9077 112.19 72.4087 110.765 72.9407 109.074H72.9787V112H74.0427V105.426H68.2287V106.395H72.9027V107.022ZM85.2978 111.031H78.9138V105.711H84.9748V104.742H78.9138V99.859H85.1458V98.89H77.7928V112H85.2978V111.031ZM98.0789 108.561C98.0789 106.642 96.8439 105.502 94.2789 104.837L92.5119 104.381C90.4219 103.849 89.4149 103.279 89.4149 102.044C89.4149 100.657 90.7069 99.669 92.7399 99.669C94.9249 99.669 96.3499 100.866 96.5209 102.785H97.6609C97.4519 100.353 95.6279 98.7 92.6639 98.7C90.0799 98.7 88.2179 100.182 88.2179 102.082C88.2179 103.925 89.5859 104.856 91.9989 105.464L93.8229 105.939C95.8179 106.452 96.8629 107.288 96.8629 108.561C96.8629 110.366 95.3049 111.221 93.1579 111.221C90.9729 111.221 89.1869 109.53 89.0349 107.383H87.8949C88.0849 109.967 90.0609 112.19 93.1959 112.19C96.1599 112.19 98.0789 110.86 98.0789 108.561ZM99.4884 99.859H104.067V112H105.169V99.859H109.748V98.89H99.4884V99.859ZM113.558 112V98.89H112.437V112H113.558ZM123.281 97.94L125.922 95.375H124.326L122.255 97.94H123.281ZM129.304 105.445C129.304 101.816 126.834 98.7 123.186 98.7C119.538 98.7 117.068 101.816 117.068 105.445C117.068 109.074 119.538 112.19 123.186 112.19C126.834 112.19 129.304 109.074 129.304 105.445ZM118.265 105.445C118.265 101.892 120.545 99.669 123.186 99.669C125.827 99.669 128.107 101.892 128.107 105.445C128.107 108.998 125.827 111.221 123.186 111.221C120.545 111.221 118.265 108.998 118.265 105.445ZM142.889 98.89H141.768V111.943L135.137 98.89H132.819V112H133.94V98.947L140.571 112H142.889V98.89ZM152.717 112H156.099C160.678 112 162.996 109.188 162.996 105.445C162.996 101.702 160.678 98.89 156.099 98.89H152.717V112ZM155.909 99.859C159.766 99.859 161.799 101.892 161.799 105.445C161.799 108.998 159.766 111.031 155.909 111.031H153.838V99.859H155.909ZM174.04 111.031H167.656V105.711H173.717V104.742H167.656V99.859H173.888V98.89H166.535V112H174.04V111.031ZM71.8668 134.031H65.4828V128.711H71.5438V127.742H65.4828V122.859H71.7148V121.89H64.3618V135H71.8668V134.031ZM86.0398 135H87.8258L85.0518 133.024C86.0398 131.808 86.6098 130.193 86.6098 128.445C86.6098 124.816 84.1398 121.7 80.4918 121.7C76.8438 121.7 74.3738 124.816 74.3738 128.445C74.3738 132.074 76.8438 135.19 80.4918 135.19C81.9928 135.19 83.3038 134.658 84.3108 133.784L86.0398 135ZM75.5708 128.445C75.5708 124.892 77.8508 122.669 80.4918 122.669C83.1328 122.669 85.4128 124.892 85.4128 128.445C85.4128 130.079 84.9378 131.428 84.1588 132.397L81.6888 130.649H79.9028L83.4368 133.157C82.6008 133.841 81.5748 134.221 80.4918 134.221C77.8508 134.221 75.5708 131.998 75.5708 128.445ZM99.4529 129.737V121.89H98.3319V130.06C98.3319 132.72 97.0969 134.221 94.7029 134.221C92.3089 134.221 91.0739 132.72 91.0739 130.06V121.89H89.9529V129.737C89.9529 133.556 91.7959 135.19 94.7029 135.19C97.6099 135.19 99.4529 133.556 99.4529 129.737ZM104.803 135V121.89H103.682V135H104.803ZM109.206 135H110.327V129.661H113.253C116.464 129.661 118.478 128.312 118.478 125.766C118.478 123.22 116.464 121.89 113.253 121.89H109.206V135ZM113.348 122.859C115.647 122.859 117.281 123.657 117.281 125.766C117.281 127.894 115.647 128.711 113.348 128.711H110.327V122.859H113.348ZM132.939 128.445C132.939 124.816 130.469 121.7 126.821 121.7C123.173 121.7 120.703 124.816 120.703 128.445C120.703 132.074 123.173 135.19 126.821 135.19C130.469 135.19 132.939 132.074 132.939 128.445ZM121.9 128.445C121.9 124.892 124.18 122.669 126.821 122.669C129.462 122.669 131.742 124.892 131.742 128.445C131.742 131.998 129.462 134.221 126.821 134.221C124.18 134.221 121.9 131.998 121.9 128.445ZM145.63 131.561C145.63 129.642 144.395 128.502 141.83 127.837L140.063 127.381C137.973 126.849 136.966 126.279 136.966 125.044C136.966 123.657 138.258 122.669 140.291 122.669C142.476 122.669 143.901 123.866 144.072 125.785H145.212C145.003 123.353 143.179 121.7 140.215 121.7C137.631 121.7 135.769 123.182 135.769 125.082C135.769 126.925 137.137 127.856 139.55 128.464L141.374 128.939C143.369 129.452 144.414 130.288 144.414 131.561C144.414 133.366 142.856 134.221 140.709 134.221C138.524 134.221 136.738 132.53 136.586 130.383H135.446C135.636 132.967 137.612 135.19 140.747 135.19C143.711 135.19 145.63 133.86 145.63 131.561Z" fill="#232323"/>
<circle cx="104.384" cy="104.384" r="103.884" stroke="#232323"/>
<path d="M208.769 176.449L241.088 208.768" stroke="#232323" stroke-linecap="round" stroke-linejoin="round"/>
<path d="M241.088 176.449V208.768H208.769" stroke="#232323" stroke-linecap="round" stroke-linejoin="round"/>
</svg>
