<svg width="242" height="210" viewBox="0 0 242 210" fill="none" xmlns="http://www.w3.org/2000/svg">
<path d="M31.631 91H32.752V85.661H35.678C38.889 85.661 40.903 84.312 40.903 81.766C40.903 79.22 38.889 77.89 35.678 77.89H31.631V91ZM35.773 78.859C38.072 78.859 39.706 79.657 39.706 81.766C39.706 83.894 38.072 84.711 35.773 84.711H32.752V78.859H35.773ZM55.3633 84.445C55.3633 80.816 52.8933 77.7 49.2453 77.7C45.5973 77.7 43.1273 80.816 43.1273 84.445C43.1273 88.074 45.5973 91.19 49.2453 91.19C52.8933 91.19 55.3633 88.074 55.3633 84.445ZM44.3243 84.445C44.3243 80.892 46.6043 78.669 49.2453 78.669C51.8863 78.669 54.1663 80.892 54.1663 84.445C54.1663 87.998 51.8863 90.221 49.2453 90.221C46.6043 90.221 44.3243 87.998 44.3243 84.445ZM56.4067 78.859H60.9857V91H62.0877V78.859H66.6667V77.89H56.4067V78.859ZM76.8606 90.031H70.4766V84.711H76.5376V83.742H70.4766V78.859H76.7086V77.89H69.3556V91H76.8606V90.031ZM90.5347 77.89H89.4137V90.943L82.7827 77.89H80.4647V91H81.5857V77.947L88.2167 91H90.5347V77.89ZM105.762 86.364H104.622C104.09 88.891 102.323 90.221 100.157 90.221C97.5347 90.221 95.2547 87.998 95.2547 84.445C95.2547 80.949 97.4967 78.669 100.062 78.669C102.285 78.669 103.995 80.037 104.527 82.564H105.667C105.097 79.733 103.102 77.7 100.024 77.7C96.4517 77.7 94.0577 80.892 94.0577 84.445C94.0577 88.112 96.4897 91.19 100.062 91.19C103.14 91.19 105.211 89.195 105.762 86.364ZM110.187 91V77.89H109.066V91H110.187ZM112.861 91H114.039L115.578 86.839H122.19L123.729 91H124.907L120.024 77.89H117.744L112.861 91ZM118.884 77.947L121.829 85.87H115.939L118.884 77.947ZM127.591 91H128.712V85.262H131.581C131.771 85.262 131.942 85.262 132.132 85.243L135.457 91H136.749L133.31 85.11C135.343 84.692 136.502 83.514 136.502 81.576C136.502 79.144 134.659 77.89 131.581 77.89H127.591V91ZM131.676 78.859C133.823 78.859 135.305 79.562 135.305 81.576C135.305 83.571 133.823 84.312 131.676 84.312H128.712V78.859H131.676ZM153.027 90.031H146.719V77.89H145.598V91H153.027V90.031ZM153.994 91H155.172L156.711 86.839H163.323L164.862 91H166.04L161.157 77.89H158.877L153.994 91ZM160.017 77.947L162.962 85.87H157.072L160.017 77.947ZM177.791 87.561C177.791 85.642 176.556 84.502 173.991 83.837L172.224 83.381C170.134 82.849 169.127 82.279 169.127 81.044C169.127 79.657 170.419 78.669 172.452 78.669C174.637 78.669 176.062 79.866 176.233 81.785H177.373C177.164 79.353 175.34 77.7 172.376 77.7C169.792 77.7 167.93 79.182 167.93 81.082C167.93 82.925 169.298 83.856 171.711 84.464L173.535 84.939C175.53 85.452 176.575 86.288 176.575 87.561C176.575 89.366 175.017 90.221 172.87 90.221C170.685 90.221 168.899 88.53 168.747 86.383H167.607C167.797 88.967 169.773 91.19 172.908 91.19C175.872 91.19 177.791 89.86 177.791 87.561ZM31.9797 109.364H30.8397C30.3077 111.891 28.5407 113.221 26.3747 113.221C23.7527 113.221 21.4727 110.998 21.4727 107.445C21.4727 103.949 23.7147 101.669 26.2797 101.669C28.5027 101.669 30.2127 103.037 30.7447 105.564H31.8847C31.3147 102.733 29.3197 100.7 26.2417 100.7C22.6697 100.7 20.2757 103.892 20.2757 107.445C20.2757 111.112 22.7077 114.19 26.2797 114.19C29.3577 114.19 31.4287 112.195 31.9797 109.364ZM33.5547 114H34.7327L36.2717 109.839H42.8837L44.4227 114H45.6007L40.7177 100.89H38.4377L33.5547 114ZM39.5777 100.947L42.5227 108.87H36.6327L39.5777 100.947ZM48.2853 114H49.4063V108.661H52.3323C55.5433 108.661 57.5573 107.312 57.5573 104.766C57.5573 102.22 55.5433 100.89 52.3323 100.89H48.2853V114ZM52.4273 101.859C54.7263 101.859 56.3603 102.657 56.3603 104.766C56.3603 106.894 54.7263 107.711 52.4273 107.711H49.4063V101.859H52.4273ZM58.1478 114H59.3258L60.8648 109.839H67.4768L69.0158 114H70.1938L65.3108 100.89H63.0308L58.1478 114ZM64.1708 100.947L67.1158 108.87H61.2258L64.1708 100.947ZM83.5039 109.364H82.3639C81.8319 111.891 80.0649 113.221 77.8989 113.221C75.2769 113.221 72.9969 110.998 72.9969 107.445C72.9969 103.949 75.2389 101.669 77.8039 101.669C80.0269 101.669 81.7369 103.037 82.2689 105.564H83.4089C82.8389 102.733 80.8439 100.7 77.7659 100.7C74.1939 100.7 71.7999 103.892 71.7999 107.445C71.7999 111.112 74.2319 114.19 77.8039 114.19C80.8819 114.19 82.9529 112.195 83.5039 109.364ZM87.9288 114V100.89H86.8078V114H87.9288ZM92.3319 114H95.7139C100.293 114 102.611 111.188 102.611 107.445C102.611 103.702 100.293 100.89 95.7139 100.89H92.3319V114ZM95.5239 101.859C99.3809 101.859 101.414 103.892 101.414 107.445C101.414 110.998 99.3809 113.031 95.5239 113.031H93.4529V101.859H95.5239ZM104.235 114H105.413L106.952 109.839H113.564L115.103 114H116.281L111.398 100.89H109.118L104.235 114ZM110.258 100.947L113.203 108.87H107.313L110.258 100.947ZM118.966 114H122.348C126.927 114 129.245 111.188 129.245 107.445C129.245 103.702 126.927 100.89 122.348 100.89H118.966V114ZM122.158 101.859C126.015 101.859 128.048 103.892 128.048 107.445C128.048 110.998 126.015 113.031 122.158 113.031H120.087V101.859H122.158ZM140.289 113.031H133.905V107.711H139.966V106.742H133.905V101.859H140.137V100.89H132.784V114H140.289V113.031ZM153.07 110.561C153.07 108.642 151.835 107.502 149.27 106.837L147.503 106.381C145.413 105.849 144.406 105.279 144.406 104.044C144.406 102.657 145.698 101.669 147.731 101.669C149.916 101.669 151.341 102.866 151.512 104.785H152.652C152.443 102.353 150.619 100.7 147.655 100.7C145.071 100.7 143.209 102.182 143.209 104.082C143.209 105.925 144.577 106.856 146.99 107.464L148.814 107.939C150.809 108.452 151.854 109.288 151.854 110.561C151.854 112.366 150.296 113.221 148.149 113.221C145.964 113.221 144.178 111.53 144.026 109.383H142.886C143.076 111.967 145.052 114.19 148.187 114.19C151.151 114.19 153.07 112.86 153.07 110.561ZM161.899 114H165.281C169.86 114 172.178 111.188 172.178 107.445C172.178 103.702 169.86 100.89 165.281 100.89H161.899V114ZM165.091 101.859C168.948 101.859 170.981 103.892 170.981 107.445C170.981 110.998 168.948 113.031 165.091 113.031H163.02V101.859H165.091ZM183.222 113.031H176.838V107.711H182.899V106.742H176.838V101.859H183.07V100.89H175.717V114H183.222V113.031ZM41.8658 136.031H35.5578V123.89H34.4368V137H41.8658V136.031ZM42.8335 137H44.0115L45.5505 132.839H52.1625L53.7015 137H54.8795L49.9965 123.89H47.7165L42.8335 137ZM48.8565 123.947L51.8015 131.87H45.9115L48.8565 123.947ZM66.6298 133.561C66.6298 131.642 65.3948 130.502 62.8298 129.837L61.0628 129.381C58.9728 128.849 57.9658 128.279 57.9658 127.044C57.9658 125.657 59.2578 124.669 61.2908 124.669C63.4758 124.669 64.9008 125.866 65.0718 127.785H66.2118C66.0028 125.353 64.1788 123.7 61.2148 123.7C58.6308 123.7 56.7688 125.182 56.7688 127.082C56.7688 128.925 58.1368 129.856 60.5498 130.464L62.3738 130.939C64.3688 131.452 65.4138 132.288 65.4138 133.561C65.4138 135.366 63.8558 136.221 61.7088 136.221C59.5238 136.221 57.7378 134.53 57.5858 132.383H56.4458C56.6358 134.967 58.6118 137.19 61.7468 137.19C64.7108 137.19 66.6298 135.86 66.6298 133.561ZM75.459 137H76.58V131.661H79.506C82.717 131.661 84.731 130.312 84.731 127.766C84.731 125.22 82.717 123.89 79.506 123.89H75.459V137ZM79.601 124.859C81.9 124.859 83.534 125.657 83.534 127.766C83.534 129.894 81.9 130.711 79.601 130.711H76.58V124.859H79.601ZM95.3534 136.031H88.9694V130.711H95.0304V129.742H88.9694V124.859H95.2014V123.89H87.8484V137H95.3534V136.031ZM98.9574 137H100.078V131.262H102.947C103.137 131.262 103.308 131.262 103.498 131.243L106.823 137H108.115L104.676 131.11C106.709 130.692 107.868 129.514 107.868 127.576C107.868 125.144 106.025 123.89 102.947 123.89H98.9574V137ZM103.042 124.859C105.189 124.859 106.671 125.562 106.671 127.576C106.671 129.571 105.189 130.312 103.042 130.312H100.078V124.859H103.042ZM120.728 133.561C120.728 131.642 119.493 130.502 116.928 129.837L115.161 129.381C113.071 128.849 112.064 128.279 112.064 127.044C112.064 125.657 113.356 124.669 115.389 124.669C117.574 124.669 118.999 125.866 119.17 127.785H120.31C120.101 125.353 118.277 123.7 115.313 123.7C112.729 123.7 110.867 125.182 110.867 127.082C110.867 128.925 112.235 129.856 114.648 130.464L116.472 130.939C118.467 131.452 119.512 132.288 119.512 133.561C119.512 135.366 117.954 136.221 115.807 136.221C113.622 136.221 111.836 134.53 111.684 132.383H110.544C110.734 134.967 112.71 137.19 115.845 137.19C118.809 137.19 120.728 135.86 120.728 133.561ZM135.487 130.445C135.487 126.816 133.017 123.7 129.369 123.7C125.721 123.7 123.251 126.816 123.251 130.445C123.251 134.074 125.721 137.19 129.369 137.19C133.017 137.19 135.487 134.074 135.487 130.445ZM124.448 130.445C124.448 126.892 126.728 124.669 129.369 124.669C132.01 124.669 134.29 126.892 134.29 130.445C134.29 133.998 132.01 136.221 129.369 136.221C126.728 136.221 124.448 133.998 124.448 130.445ZM149.071 123.89H147.95V136.943L141.319 123.89H139.001V137H140.122V123.947L146.753 137H149.071V123.89ZM151.758 137H152.936L154.475 132.839H161.087L162.626 137H163.804L158.921 123.89H156.641L151.758 137ZM157.781 123.947L160.726 131.87H154.836L157.781 123.947ZM175.555 133.561C175.555 131.642 174.32 130.502 171.755 129.837L169.988 129.381C167.898 128.849 166.891 128.279 166.891 127.044C166.891 125.657 168.183 124.669 170.216 124.669C172.401 124.669 173.826 125.866 173.997 127.785H175.137C174.928 125.353 173.104 123.7 170.14 123.7C167.556 123.7 165.694 125.182 165.694 127.082C165.694 128.925 167.062 129.856 169.475 130.464L171.299 130.939C173.294 131.452 174.339 132.288 174.339 133.561C174.339 135.366 172.781 136.221 170.634 136.221C168.449 136.221 166.663 134.53 166.511 132.383H165.371C165.561 134.967 167.537 137.19 170.672 137.19C173.636 137.19 175.555 135.86 175.555 133.561Z" fill="#232323"/>
<circle cx="104.384" cy="105.384" r="103.884" stroke="#232323"/>
<path d="M208.769 33.7947L241.088 1.47487" stroke="#232323" stroke-linecap="round" stroke-linejoin="round"/>
<path d="M208.769 1.47487L241.088 1.47487L241.088 33.7947" stroke="#232323" stroke-linecap="round" stroke-linejoin="round"/>
</svg>
