<svg width="242" height="210" viewBox="0 0 242 210" fill="none" xmlns="http://www.w3.org/2000/svg">
<path d="M77.2091 83.882V82.913H70.3881V77.859H77.3231V76.89H69.2671V90H70.3881V83.882H77.2091ZM78.3874 90H79.5654L81.1044 85.839H87.7164L89.2554 90H90.4334L85.5504 76.89H83.2704L78.3874 90ZM84.4104 76.947L87.3554 84.87H81.4654L84.4104 76.947ZM90.7763 76.89L95.6593 90H97.9393L102.822 76.89H101.644L96.7993 89.943L91.9543 76.89H90.7763ZM116.665 83.445C116.665 79.816 114.195 76.7 110.547 76.7C106.899 76.7 104.429 79.816 104.429 83.445C104.429 87.074 106.899 90.19 110.547 90.19C114.195 90.19 116.665 87.074 116.665 83.445ZM105.626 83.445C105.626 79.892 107.906 77.669 110.547 77.669C113.188 77.669 115.468 79.892 115.468 83.445C115.468 86.998 113.188 89.221 110.547 89.221C107.906 89.221 105.626 86.998 105.626 83.445ZM120.179 90H121.3V84.262H124.169C124.359 84.262 124.53 84.262 124.72 84.243L128.045 90H129.337L125.898 84.11C127.931 83.692 129.09 82.514 129.09 80.576C129.09 78.144 127.247 76.89 124.169 76.89H120.179V90ZM124.264 77.859C126.411 77.859 127.893 78.562 127.893 80.576C127.893 82.571 126.411 83.312 124.264 83.312H121.3V77.859H124.264ZM140.277 89.031H133.893V83.711H139.954V82.742H133.893V77.859H140.125V76.89H132.772V90H140.277V89.031ZM154.488 85.364H153.348C152.816 87.891 151.049 89.221 148.883 89.221C146.261 89.221 143.981 86.998 143.981 83.445C143.981 79.949 146.223 77.669 148.788 77.669C151.011 77.669 152.721 79.037 153.253 81.564H154.393C153.823 78.733 151.828 76.7 148.75 76.7C145.178 76.7 142.784 79.892 142.784 83.445C142.784 87.112 145.216 90.19 148.788 90.19C151.866 90.19 153.937 88.195 154.488 85.364ZM165.297 89.031H158.913V83.711H164.974V82.742H158.913V77.859H165.145V76.89H157.792V90H165.297V89.031ZM168.901 90H170.022V84.262H172.891C173.081 84.262 173.252 84.262 173.442 84.243L176.767 90H178.059L174.62 84.11C176.653 83.692 177.812 82.514 177.812 80.576C177.812 78.144 175.969 76.89 172.891 76.89H168.901V90ZM172.986 77.859C175.133 77.859 176.615 78.562 176.615 80.576C176.615 82.571 175.133 83.312 172.986 83.312H170.022V77.859H172.986ZM194.336 89.031H188.028V76.89H186.907V90H194.336V89.031ZM195.304 90H196.482L198.021 85.839H204.633L206.172 90H207.35L202.467 76.89H200.187L195.304 90ZM201.327 76.947L204.272 84.87H198.382L201.327 76.947ZM64.9817 112.031H58.5977V106.711H64.6587V105.742H58.5977V100.859H64.8297V99.89H57.4767V113H64.9817V112.031ZM76.5277 106.882V105.913H69.7067V100.859H76.6417V99.89H68.5857V113H69.7067V106.882H76.5277ZM81.1312 113V99.89H80.0102V113H81.1312ZM96.3453 108.364H95.2053C94.6733 110.891 92.9063 112.221 90.7403 112.221C88.1183 112.221 85.8383 109.998 85.8383 106.445C85.8383 102.949 88.0803 100.669 90.6453 100.669C92.8683 100.669 94.5783 102.037 95.1103 104.564H96.2503C95.6803 101.733 93.6853 99.7 90.6073 99.7C87.0353 99.7 84.6413 102.892 84.6413 106.445C84.6413 110.112 87.0733 113.19 90.6453 113.19C93.7233 113.19 95.7943 111.195 96.3453 108.364ZM100.77 113V99.89H99.6493V113H100.77ZM112.678 112.031H106.294V106.711H112.355V105.742H106.294V100.859H112.526V99.89H105.173V113H112.678V112.031ZM126.352 99.89H125.231V112.943L118.6 99.89H116.282V113H117.403V99.947L124.034 113H126.352V99.89ZM141.579 108.364H140.439C139.907 110.891 138.14 112.221 135.974 112.221C133.352 112.221 131.072 109.998 131.072 106.445C131.072 102.949 133.314 100.669 135.879 100.669C138.102 100.669 139.812 102.037 140.344 104.564H141.484C140.914 101.733 138.919 99.7 135.841 99.7C132.269 99.7 129.875 102.892 129.875 106.445C129.875 110.112 132.307 113.19 135.879 113.19C138.957 113.19 141.028 111.195 141.579 108.364ZM146.004 113V99.89H144.883V113H146.004ZM148.678 113H149.856L151.395 108.839H158.007L159.546 113H160.724L155.841 99.89H153.561L148.678 113ZM154.701 99.947L157.646 107.87H151.756L154.701 99.947ZM168.358 113H171.74C176.319 113 178.637 110.188 178.637 106.445C178.637 102.702 176.319 99.89 171.74 99.89H168.358V113ZM171.55 100.859C175.407 100.859 177.44 102.892 177.44 106.445C177.44 109.998 175.407 112.031 171.55 112.031H169.479V100.859H171.55ZM189.681 112.031H183.297V106.711H189.358V105.742H183.297V100.859H189.529V99.89H182.176V113H189.681V112.031ZM206.127 112.031H199.819V99.89H198.698V113H206.127V112.031ZM207.095 113H208.273L209.812 108.839H216.424L217.963 113H219.141L214.258 99.89H211.978L207.095 113ZM213.118 99.947L216.063 107.87H210.173L213.118 99.947ZM77.1285 129.445C77.1285 125.816 74.6585 122.7 71.0105 122.7C67.3625 122.7 64.8925 125.816 64.8925 129.445C64.8925 133.074 67.3625 136.19 71.0105 136.19C74.6585 136.19 77.1285 133.074 77.1285 129.445ZM66.0895 129.445C66.0895 125.892 68.3695 123.669 71.0105 123.669C73.6515 123.669 75.9315 125.892 75.9315 129.445C75.9315 132.998 73.6515 135.221 71.0105 135.221C68.3695 135.221 66.0895 132.998 66.0895 129.445ZM80.6426 136H81.7636V130.262H84.6326C84.8226 130.262 84.9936 130.262 85.1836 130.243L88.5086 136H89.8006L86.3616 130.11C88.3946 129.692 89.5536 128.514 89.5536 126.576C89.5536 124.144 87.7106 122.89 84.6326 122.89H80.6426V136ZM84.7276 123.859C86.8746 123.859 88.3566 124.562 88.3566 126.576C88.3566 128.571 86.8746 129.312 84.7276 129.312H81.7636V123.859H84.7276ZM102.776 131.022C102.776 133.435 101.18 135.221 98.4632 135.221C95.7082 135.221 93.4662 133.017 93.4662 129.445C93.4662 125.873 95.6702 123.669 98.4442 123.669C100.952 123.669 102.32 125.303 102.624 127.108H103.764C103.422 124.714 101.465 122.7 98.3492 122.7C94.6442 122.7 92.2692 125.778 92.2692 129.445C92.2692 133.112 94.6822 136.19 98.3112 136.19C100.781 136.19 102.282 134.765 102.814 133.074H102.852V136H103.916V129.426H98.1022V130.395H102.776V131.022ZM105.937 136H107.115L108.654 131.839H115.266L116.805 136H117.983L113.1 122.89H110.82L105.937 136ZM111.96 122.947L114.905 130.87H109.015L111.96 122.947ZM130.738 122.89H129.617V135.943L122.986 122.89H120.668V136H121.789V122.947L128.42 136H130.738V122.89ZM136.275 136V122.89H135.154V136H136.275ZM139.519 135.031V136H148.62V135.031H140.868L148.449 123.859V122.89H139.633V123.859H147.1L139.519 135.031ZM150.095 136H151.273L152.812 131.839H159.424L160.963 136H162.141L157.258 122.89H154.978L150.095 136ZM156.118 122.947L159.063 130.87H153.173L156.118 122.947ZM175.451 131.364H174.311C173.779 133.891 172.012 135.221 169.846 135.221C167.224 135.221 164.944 132.998 164.944 129.445C164.944 125.949 167.186 123.669 169.751 123.669C171.974 123.669 173.684 125.037 174.216 127.564H175.356C174.786 124.733 172.791 122.7 169.713 122.7C166.141 122.7 163.747 125.892 163.747 129.445C163.747 133.112 166.179 136.19 169.751 136.19C172.829 136.19 174.9 134.195 175.451 131.364ZM179.876 136V122.89H178.755V136H179.876ZM189.599 121.94L192.24 119.375H190.644L188.573 121.94H189.599ZM195.622 129.445C195.622 125.816 193.152 122.7 189.504 122.7C185.856 122.7 183.386 125.816 183.386 129.445C183.386 133.074 185.856 136.19 189.504 136.19C193.152 136.19 195.622 133.074 195.622 129.445ZM184.583 129.445C184.583 125.892 186.863 123.669 189.504 123.669C192.145 123.669 194.425 125.892 194.425 129.445C194.425 132.998 192.145 135.221 189.504 135.221C186.863 135.221 184.583 132.998 184.583 129.445ZM209.207 122.89H208.086V135.943L201.455 122.89H199.137V136H200.258V122.947L206.889 136H209.207V122.89Z" fill="#232323"/>
<circle cx="137.384" cy="104.384" r="103.884" stroke="#232323"/>
<path d="M33.2314 176.449L0.911636 208.768" stroke="#232323" stroke-linecap="round" stroke-linejoin="round"/>
<path d="M33.2314 208.768L0.911636 208.768L0.911637 176.449" stroke="#232323" stroke-linecap="round" stroke-linejoin="round"/>
</svg>
