<svg width="209" height="209" viewBox="0 0 209 209" fill="none" xmlns="http://www.w3.org/2000/svg">
<circle cx="104.384" cy="104.384" r="103.884" stroke="#232323"/>
<path d="M41.1881 66H42.3091V60.262H45.1781C45.3681 60.262 45.5391 60.262 45.7291 60.243L49.0541 66H50.3461L46.9071 60.11C48.9401 59.692 50.0991 58.514 50.0991 56.576C50.0991 54.144 48.2561 52.89 45.1781 52.89H41.1881V66ZM45.2731 53.859C47.4201 53.859 48.9021 54.562 48.9021 56.576C48.9021 58.571 47.4201 59.312 45.2731 59.312H42.3091V53.859H45.2731ZM61.2866 65.031H54.9026V59.711H60.9636V58.742H54.9026V53.859H61.1346V52.89H53.7816V66H61.2866V65.031ZM63.1616 66H64.3396L65.8786 61.839H72.4906L74.0296 66H75.2076L70.3246 52.89H68.0446L63.1616 66ZM69.1846 52.947L72.1296 60.87H66.2396L69.1846 52.947ZM85.3213 65.031H79.0133V52.89H77.8923V66H85.3213V65.031ZM89.1389 66V52.89H88.0179V66H89.1389ZM92.383 65.031V66H101.484V65.031H93.732L101.313 53.859V52.89H92.497V53.859H99.964L92.383 65.031ZM102.959 66H104.137L105.676 61.839H112.288L113.827 66H115.005L110.122 52.89H107.842L102.959 66ZM108.982 52.947L111.927 60.87H106.037L108.982 52.947ZM117.69 66H118.811V60.262H121.68C121.87 60.262 122.041 60.262 122.231 60.243L125.556 66H126.848L123.409 60.11C125.442 59.692 126.601 58.514 126.601 56.576C126.601 54.144 124.758 52.89 121.68 52.89H117.69V66ZM121.775 53.859C123.922 53.859 125.404 54.562 125.404 56.576C125.404 58.571 123.922 59.312 121.775 59.312H118.811V53.859H121.775ZM140.353 52.89H139.232V65.943L132.601 52.89H130.283V66H131.404V52.947L138.035 66H140.353V52.89ZM156.112 59.445C156.112 55.816 153.642 52.7 149.994 52.7C146.346 52.7 143.876 55.816 143.876 59.445C143.876 63.074 146.346 66.19 149.994 66.19C153.642 66.19 156.112 63.074 156.112 59.445ZM145.073 59.445C145.073 55.892 147.353 53.669 149.994 53.669C152.635 53.669 154.915 55.892 154.915 59.445C154.915 62.998 152.635 65.221 149.994 65.221C147.353 65.221 145.073 62.998 145.073 59.445ZM168.803 62.561C168.803 60.642 167.568 59.502 165.003 58.837L163.236 58.381C161.146 57.849 160.139 57.279 160.139 56.044C160.139 54.657 161.431 53.669 163.464 53.669C165.649 53.669 167.074 54.866 167.245 56.785H168.385C168.176 54.353 166.352 52.7 163.388 52.7C160.804 52.7 158.942 54.182 158.942 56.082C158.942 57.925 160.31 58.856 162.723 59.464L164.547 59.939C166.542 60.452 167.587 61.288 167.587 62.561C167.587 64.366 166.029 65.221 163.882 65.221C161.697 65.221 159.911 63.53 159.759 61.383H158.619C158.809 63.967 160.785 66.19 163.92 66.19C166.884 66.19 168.803 64.86 168.803 62.561ZM79.7996 84.364H78.6596C78.1276 86.891 76.3606 88.221 74.1946 88.221C71.5726 88.221 69.2926 85.998 69.2926 82.445C69.2926 78.949 71.5346 76.669 74.0996 76.669C76.3226 76.669 78.0326 78.037 78.5646 80.564H79.7046C79.1346 77.733 77.1396 75.7 74.0616 75.7C70.4896 75.7 68.0956 78.892 68.0956 82.445C68.0956 86.112 70.5276 89.19 74.0996 89.19C77.1776 89.19 79.2486 87.195 79.7996 84.364ZM83.1035 89H84.2245V83.262H87.0935C87.2835 83.262 87.4545 83.262 87.6445 83.243L90.9695 89H92.2615L88.8225 83.11C90.8555 82.692 92.0145 81.514 92.0145 79.576C92.0145 77.144 90.1715 75.89 87.0935 75.89H83.1035V89ZM87.1885 76.859C89.3355 76.859 90.8175 77.562 90.8175 79.576C90.8175 81.571 89.3355 82.312 87.1885 82.312H84.2245V76.859H87.1885ZM103.202 88.031H96.818V82.711H102.879V81.742H96.818V76.859H103.05V75.89H95.697V89H103.202V88.031ZM117.413 84.364H116.273C115.741 86.891 113.974 88.221 111.808 88.221C109.186 88.221 106.906 85.998 106.906 82.445C106.906 78.949 109.148 76.669 111.713 76.669C113.936 76.669 115.646 78.037 116.178 80.564H117.318C116.748 77.733 114.753 75.7 111.675 75.7C108.103 75.7 105.709 78.892 105.709 82.445C105.709 86.112 108.141 89.19 111.713 89.19C114.791 89.19 116.862 87.195 117.413 84.364ZM128.222 88.031H121.838V82.711H127.899V81.742H121.838V76.859H128.07V75.89H120.717V89H128.222V88.031ZM131.826 89H132.947V83.262H135.816C136.006 83.262 136.177 83.262 136.367 83.243L139.692 89H140.984L137.545 83.11C139.578 82.692 140.737 81.514 140.737 79.576C140.737 77.144 138.894 75.89 135.816 75.89H131.826V89ZM135.911 76.859C138.058 76.859 139.54 77.562 139.54 79.576C139.54 81.571 138.058 82.312 135.911 82.312H132.947V76.859H135.911ZM40.9966 112H42.1746L43.7136 107.839H50.3256L51.8646 112H53.0426L48.1596 98.89H45.8796L40.9966 112ZM47.0196 98.947L49.9646 106.87H44.0746L47.0196 98.947ZM66.3527 107.364H65.2127C64.6807 109.891 62.9137 111.221 60.7477 111.221C58.1257 111.221 55.8457 108.998 55.8457 105.445C55.8457 101.949 58.0877 99.669 60.6527 99.669C62.8757 99.669 64.5857 101.037 65.1177 103.564H66.2577C65.6877 100.733 63.6927 98.7 60.6147 98.7C57.0427 98.7 54.6487 101.892 54.6487 105.445C54.6487 109.112 57.0807 112.19 60.6527 112.19C63.7307 112.19 65.8017 110.195 66.3527 107.364ZM77.1616 111.031H70.7776V105.711H76.8386V104.742H70.7776V99.859H77.0096V98.89H69.6566V112H77.1616V111.031ZM80.7657 112H81.8867V106.661H84.8127C88.0237 106.661 90.0377 105.312 90.0377 102.766C90.0377 100.22 88.0237 98.89 84.8127 98.89H80.7657V112ZM84.9077 99.859C87.2067 99.859 88.8407 100.657 88.8407 102.766C88.8407 104.894 87.2067 105.711 84.9077 105.711H81.8867V99.859H84.9077ZM91.3522 99.859H95.9312V112H97.0332V99.859H101.612V98.89H91.3522V99.859ZM101.422 112H102.6L104.139 107.839H110.751L112.29 112H113.468L108.585 98.89H106.305L101.422 112ZM107.445 98.947L110.39 106.87H104.5L107.445 98.947ZM116.152 112H117.273V106.262H120.142C120.332 106.262 120.503 106.262 120.693 106.243L124.018 112H125.31L121.871 106.11C123.904 105.692 125.063 104.514 125.063 102.576C125.063 100.144 123.22 98.89 120.142 98.89H116.152V112ZM120.237 99.859C122.384 99.859 123.866 100.562 123.866 102.576C123.866 104.571 122.384 105.312 120.237 105.312H117.273V99.859H120.237ZM138.816 98.89H137.695V111.943L131.064 98.89H128.746V112H129.867V98.947L136.498 112H138.816V98.89ZM154.575 105.445C154.575 101.816 152.105 98.7 148.457 98.7C144.809 98.7 142.339 101.816 142.339 105.445C142.339 109.074 144.809 112.19 148.457 112.19C152.105 112.19 154.575 109.074 154.575 105.445ZM143.536 105.445C143.536 101.892 145.816 99.669 148.457 99.669C151.098 99.669 153.378 101.892 153.378 105.445C153.378 108.998 151.098 111.221 148.457 111.221C145.816 111.221 143.536 108.998 143.536 105.445ZM167.266 108.561C167.266 106.642 166.031 105.502 163.466 104.837L161.699 104.381C159.609 103.849 158.602 103.279 158.602 102.044C158.602 100.657 159.894 99.669 161.927 99.669C164.112 99.669 165.537 100.866 165.708 102.785H166.848C166.639 100.353 164.815 98.7 161.851 98.7C159.267 98.7 157.405 100.182 157.405 102.082C157.405 103.925 158.773 104.856 161.186 105.464L163.01 105.939C165.005 106.452 166.05 107.288 166.05 108.561C166.05 110.366 164.492 111.221 162.345 111.221C160.16 111.221 158.374 109.53 158.222 107.383H157.082C157.272 109.967 159.248 112.19 162.383 112.19C165.347 112.19 167.266 110.86 167.266 108.561ZM53.6667 158H57.4477C61.6277 158 64.1357 155.302 64.1357 151.445C64.1357 147.588 61.6277 144.89 57.4477 144.89H53.6667V158ZM57.2577 146.258C60.4877 146.258 62.3687 148.082 62.3687 151.445C62.3687 154.808 60.4877 156.632 57.2577 156.632H55.3007V146.258H57.2577ZM69.0816 158V144.89H67.4476V158H69.0816ZM78.8944 150.609L77.1274 150.191C74.9614 149.678 74.3534 149.127 74.3534 148.139C74.3534 146.809 75.5314 146.068 77.2414 146.068C79.2554 146.068 80.4334 147.227 80.5854 148.785H82.2764C82.0484 146.524 80.4144 144.7 77.1654 144.7C74.6954 144.7 72.5864 146.068 72.5864 148.215C72.5864 150.039 73.8784 151.198 76.6144 151.844L78.3814 152.262C80.0724 152.661 80.8514 153.364 80.8514 154.58C80.8514 155.967 79.5024 156.822 77.5644 156.822C75.5694 156.822 74.0684 155.264 73.9544 153.383H72.2634C72.4344 155.872 74.2014 158.19 77.6404 158.19C80.7564 158.19 82.6374 156.575 82.6374 154.599C82.6374 152.319 81.3264 151.179 78.8944 150.609ZM85.8249 158H87.4589V152.072H93.9569V150.704H87.4589V146.258H94.0709V144.89H85.8249V158ZM97.2865 158H98.9205V152.471H101.353C101.448 152.471 101.524 152.471 101.619 152.471L104.754 158H106.635L103.367 152.243C105.305 151.768 106.388 150.533 106.388 148.671C106.388 146.239 104.526 144.89 101.353 144.89H97.2865V158ZM101.543 146.258C103.576 146.258 104.621 147.094 104.621 148.671C104.621 150.248 103.576 151.103 101.543 151.103H98.9205V146.258H101.543ZM117.747 153.06C117.747 155.34 116.816 156.822 114.536 156.822C112.256 156.822 111.325 155.34 111.325 153.06V144.89H109.691V152.775C109.691 156.499 111.496 158.19 114.536 158.19C117.576 158.19 119.381 156.499 119.381 152.775V144.89H117.747V153.06ZM121.806 146.258H126.214V158H127.848V146.258H132.256V144.89H121.806V146.258ZM132.135 158H133.864L135.194 154.048H141.312L142.642 158H144.371L139.944 144.89H136.562L132.135 158ZM138.253 144.966L140.856 152.68H135.65L138.253 144.966ZM146.9 158H148.534V152.471H150.966C151.061 152.471 151.137 152.471 151.232 152.471L154.367 158H156.248L152.98 152.243C154.918 151.768 156.001 150.533 156.001 148.671C156.001 146.239 154.139 144.89 150.966 144.89H146.9V158ZM151.156 146.258C153.189 146.258 154.234 147.094 154.234 148.671C154.234 150.248 153.189 151.103 151.156 151.103H148.534V146.258H151.156Z" fill="#232323"/>
</svg>
