<svg width="732" height="516" viewBox="0 0 732 516" fill="none" xmlns="http://www.w3.org/2000/svg">
<circle cx="363.384" cy="248.384" r="103.884" stroke="#232323"/>
<path d="M300.188 210H301.309V204.262H304.178C304.368 204.262 304.539 204.262 304.729 204.243L308.054 210H309.346L305.907 204.11C307.94 203.692 309.099 202.514 309.099 200.576C309.099 198.144 307.256 196.89 304.178 196.89H300.188V210ZM304.273 197.859C306.42 197.859 307.902 198.562 307.902 200.576C307.902 202.571 306.42 203.312 304.273 203.312H301.309V197.859H304.273ZM320.287 209.031H313.903V203.711H319.964V202.742H313.903V197.859H320.135V196.89H312.782V210H320.287V209.031ZM322.162 210H323.34L324.879 205.839H331.491L333.03 210H334.208L329.325 196.89H327.045L322.162 210ZM328.185 196.947L331.13 204.87H325.24L328.185 196.947ZM344.321 209.031H338.013V196.89H336.892V210H344.321V209.031ZM348.139 210V196.89H347.018V210H348.139ZM351.383 209.031V210H360.484V209.031H352.732L360.313 197.859V196.89H351.497V197.859H358.964L351.383 209.031ZM361.959 210H363.137L364.676 205.839H371.288L372.827 210H374.005L369.122 196.89H366.842L361.959 210ZM367.982 196.947L370.927 204.87H365.037L367.982 196.947ZM376.69 210H377.811V204.262H380.68C380.87 204.262 381.041 204.262 381.231 204.243L384.556 210H385.848L382.409 204.11C384.442 203.692 385.601 202.514 385.601 200.576C385.601 198.144 383.758 196.89 380.68 196.89H376.69V210ZM380.775 197.859C382.922 197.859 384.404 198.562 384.404 200.576C384.404 202.571 382.922 203.312 380.775 203.312H377.811V197.859H380.775ZM399.353 196.89H398.232V209.943L391.601 196.89H389.283V210H390.404V196.947L397.035 210H399.353V196.89ZM415.112 203.445C415.112 199.816 412.642 196.7 408.994 196.7C405.346 196.7 402.876 199.816 402.876 203.445C402.876 207.074 405.346 210.19 408.994 210.19C412.642 210.19 415.112 207.074 415.112 203.445ZM404.073 203.445C404.073 199.892 406.353 197.669 408.994 197.669C411.635 197.669 413.915 199.892 413.915 203.445C413.915 206.998 411.635 209.221 408.994 209.221C406.353 209.221 404.073 206.998 404.073 203.445ZM427.803 206.561C427.803 204.642 426.568 203.502 424.003 202.837L422.236 202.381C420.146 201.849 419.139 201.279 419.139 200.044C419.139 198.657 420.431 197.669 422.464 197.669C424.649 197.669 426.074 198.866 426.245 200.785H427.385C427.176 198.353 425.352 196.7 422.388 196.7C419.804 196.7 417.942 198.182 417.942 200.082C417.942 201.925 419.31 202.856 421.723 203.464L423.547 203.939C425.542 204.452 426.587 205.288 426.587 206.561C426.587 208.366 425.029 209.221 422.882 209.221C420.697 209.221 418.911 207.53 418.759 205.383H417.619C417.809 207.967 419.785 210.19 422.92 210.19C425.884 210.19 427.803 208.86 427.803 206.561ZM338.8 228.364H337.66C337.128 230.891 335.361 232.221 333.195 232.221C330.573 232.221 328.293 229.998 328.293 226.445C328.293 222.949 330.535 220.669 333.1 220.669C335.323 220.669 337.033 222.037 337.565 224.564H338.705C338.135 221.733 336.14 219.7 333.062 219.7C329.49 219.7 327.096 222.892 327.096 226.445C327.096 230.112 329.528 233.19 333.1 233.19C336.178 233.19 338.249 231.195 338.8 228.364ZM342.104 233H343.225V227.262H346.094C346.284 227.262 346.455 227.262 346.645 227.243L349.97 233H351.262L347.823 227.11C349.856 226.692 351.015 225.514 351.015 223.576C351.015 221.144 349.172 219.89 346.094 219.89H342.104V233ZM346.189 220.859C348.336 220.859 349.818 221.562 349.818 223.576C349.818 225.571 348.336 226.312 346.189 226.312H343.225V220.859H346.189ZM362.202 232.031H355.818V226.711H361.879V225.742H355.818V220.859H362.05V219.89H354.697V233H362.202V232.031ZM376.413 228.364H375.273C374.741 230.891 372.974 232.221 370.808 232.221C368.186 232.221 365.906 229.998 365.906 226.445C365.906 222.949 368.148 220.669 370.713 220.669C372.936 220.669 374.646 222.037 375.178 224.564H376.318C375.748 221.733 373.753 219.7 370.675 219.7C367.103 219.7 364.709 222.892 364.709 226.445C364.709 230.112 367.141 233.19 370.713 233.19C373.791 233.19 375.862 231.195 376.413 228.364ZM387.222 232.031H380.838V226.711H386.899V225.742H380.838V220.859H387.07V219.89H379.717V233H387.222V232.031ZM390.826 233H391.947V227.262H394.816C395.006 227.262 395.177 227.262 395.367 227.243L398.692 233H399.984L396.545 227.11C398.578 226.692 399.737 225.514 399.737 223.576C399.737 221.144 397.894 219.89 394.816 219.89H390.826V233ZM394.911 220.859C397.058 220.859 398.54 221.562 398.54 223.576C398.54 225.571 397.058 226.312 394.911 226.312H391.947V220.859H394.911ZM299.997 256H301.175L302.714 251.839H309.326L310.865 256H312.043L307.16 242.89H304.88L299.997 256ZM306.02 242.947L308.965 250.87H303.075L306.02 242.947ZM325.353 251.364H324.213C323.681 253.891 321.914 255.221 319.748 255.221C317.126 255.221 314.846 252.998 314.846 249.445C314.846 245.949 317.088 243.669 319.653 243.669C321.876 243.669 323.586 245.037 324.118 247.564H325.258C324.688 244.733 322.693 242.7 319.615 242.7C316.043 242.7 313.649 245.892 313.649 249.445C313.649 253.112 316.081 256.19 319.653 256.19C322.731 256.19 324.802 254.195 325.353 251.364ZM336.162 255.031H329.778V249.711H335.839V248.742H329.778V243.859H336.01V242.89H328.657V256H336.162V255.031ZM339.766 256H340.887V250.661H343.813C347.024 250.661 349.038 249.312 349.038 246.766C349.038 244.22 347.024 242.89 343.813 242.89H339.766V256ZM343.908 243.859C346.207 243.859 347.841 244.657 347.841 246.766C347.841 248.894 346.207 249.711 343.908 249.711H340.887V243.859H343.908ZM350.352 243.859H354.931V256H356.033V243.859H360.612V242.89H350.352V243.859ZM360.422 256H361.6L363.139 251.839H369.751L371.29 256H372.468L367.585 242.89H365.305L360.422 256ZM366.445 242.947L369.39 250.87H363.5L366.445 242.947ZM375.152 256H376.273V250.262H379.142C379.332 250.262 379.503 250.262 379.693 250.243L383.018 256H384.31L380.871 250.11C382.904 249.692 384.063 248.514 384.063 246.576C384.063 244.144 382.22 242.89 379.142 242.89H375.152V256ZM379.237 243.859C381.384 243.859 382.866 244.562 382.866 246.576C382.866 248.571 381.384 249.312 379.237 249.312H376.273V243.859H379.237ZM397.816 242.89H396.695V255.943L390.064 242.89H387.746V256H388.867V242.947L395.498 256H397.816V242.89ZM413.575 249.445C413.575 245.816 411.105 242.7 407.457 242.7C403.809 242.7 401.339 245.816 401.339 249.445C401.339 253.074 403.809 256.19 407.457 256.19C411.105 256.19 413.575 253.074 413.575 249.445ZM402.536 249.445C402.536 245.892 404.816 243.669 407.457 243.669C410.098 243.669 412.378 245.892 412.378 249.445C412.378 252.998 410.098 255.221 407.457 255.221C404.816 255.221 402.536 252.998 402.536 249.445ZM426.266 252.561C426.266 250.642 425.031 249.502 422.466 248.837L420.699 248.381C418.609 247.849 417.602 247.279 417.602 246.044C417.602 244.657 418.894 243.669 420.927 243.669C423.112 243.669 424.537 244.866 424.708 246.785H425.848C425.639 244.353 423.815 242.7 420.851 242.7C418.267 242.7 416.405 244.182 416.405 246.082C416.405 247.925 417.773 248.856 420.186 249.464L422.01 249.939C424.005 250.452 425.05 251.288 425.05 252.561C425.05 254.366 423.492 255.221 421.345 255.221C419.16 255.221 417.374 253.53 417.222 251.383H416.082C416.272 253.967 418.248 256.19 421.383 256.19C424.347 256.19 426.266 254.86 426.266 252.561ZM312.667 302H316.448C320.628 302 323.136 299.302 323.136 295.445C323.136 291.588 320.628 288.89 316.448 288.89H312.667V302ZM316.258 290.258C319.488 290.258 321.369 292.082 321.369 295.445C321.369 298.808 319.488 300.632 316.258 300.632H314.301V290.258H316.258ZM328.082 302V288.89H326.448V302H328.082ZM337.894 294.609L336.127 294.191C333.961 293.678 333.353 293.127 333.353 292.139C333.353 290.809 334.531 290.068 336.241 290.068C338.255 290.068 339.433 291.227 339.585 292.785H341.276C341.048 290.524 339.414 288.7 336.165 288.7C333.695 288.7 331.586 290.068 331.586 292.215C331.586 294.039 332.878 295.198 335.614 295.844L337.381 296.262C339.072 296.661 339.851 297.364 339.851 298.58C339.851 299.967 338.502 300.822 336.564 300.822C334.569 300.822 333.068 299.264 332.954 297.383H331.263C331.434 299.872 333.201 302.19 336.64 302.19C339.756 302.19 341.637 300.575 341.637 298.599C341.637 296.319 340.326 295.179 337.894 294.609ZM344.825 302H346.459V296.072H352.957V294.704H346.459V290.258H353.071V288.89H344.825V302ZM356.287 302H357.921V296.471H360.353C360.448 296.471 360.524 296.471 360.619 296.471L363.754 302H365.635L362.367 296.243C364.305 295.768 365.388 294.533 365.388 292.671C365.388 290.239 363.526 288.89 360.353 288.89H356.287V302ZM360.543 290.258C362.576 290.258 363.621 291.094 363.621 292.671C363.621 294.248 362.576 295.103 360.543 295.103H357.921V290.258H360.543ZM376.747 297.06C376.747 299.34 375.816 300.822 373.536 300.822C371.256 300.822 370.325 299.34 370.325 297.06V288.89H368.691V296.775C368.691 300.499 370.496 302.19 373.536 302.19C376.576 302.19 378.381 300.499 378.381 296.775V288.89H376.747V297.06ZM380.806 290.258H385.214V302H386.848V290.258H391.256V288.89H380.806V290.258ZM391.135 302H392.864L394.194 298.048H400.312L401.642 302H403.371L398.944 288.89H395.562L391.135 302ZM397.253 288.966L399.856 296.68H394.65L397.253 288.966ZM405.9 302H407.534V296.471H409.966C410.061 296.471 410.137 296.471 410.232 296.471L413.367 302H415.248L411.98 296.243C413.918 295.768 415.001 294.533 415.001 292.671C415.001 290.239 413.139 288.89 409.966 288.89H405.9V302ZM410.156 290.258C412.189 290.258 413.234 291.094 413.234 292.671C413.234 294.248 412.189 295.103 410.156 295.103H407.534V290.258H410.156Z" fill="#232323"/>
<path d="M63.448 82.445C63.448 78.816 60.978 75.7 57.33 75.7C53.682 75.7 51.212 78.816 51.212 82.445C51.212 86.074 53.682 89.19 57.33 89.19C60.978 89.19 63.448 86.074 63.448 82.445ZM52.409 82.445C52.409 78.892 54.689 76.669 57.33 76.669C59.971 76.669 62.251 78.892 62.251 82.445C62.251 85.998 59.971 88.221 57.33 88.221C54.689 88.221 52.409 85.998 52.409 82.445ZM66.9621 89H68.0831V83.661H71.0091C74.2201 83.661 76.2341 82.312 76.2341 79.766C76.2341 77.22 74.2201 75.89 71.0091 75.89H66.9621V89ZM71.1041 76.859C73.4031 76.859 75.0371 77.657 75.0371 79.766C75.0371 81.894 73.4031 82.711 71.1041 82.711H68.0831V76.859H71.1041ZM77.5486 76.859H82.1276V89H83.2296V76.859H87.8086V75.89H77.5486V76.859ZM91.6186 89V75.89H90.4976V89H91.6186ZM102.615 88.943L98.2637 75.89H96.0217V89H97.1427V75.947L101.475 89H103.755L108.087 75.947V89H109.208V75.89H106.966L102.615 88.943ZM114.746 89V75.89H113.625V89H114.746ZM117.99 88.031V89H127.091V88.031H119.339L126.92 76.859V75.89H118.104V76.859H125.571L117.99 88.031ZM128.566 89H129.744L131.283 84.839H137.895L139.434 89H140.612L135.729 75.89H133.449L128.566 89ZM134.589 75.947L137.534 83.87H131.644L134.589 75.947ZM143.297 89H144.418V83.262H147.287C147.477 83.262 147.648 83.262 147.838 83.243L151.163 89H152.455L149.016 83.11C151.049 82.692 152.208 81.514 152.208 79.576C152.208 77.144 150.365 75.89 147.287 75.89H143.297V89ZM147.382 76.859C149.529 76.859 151.011 77.562 151.011 79.576C151.011 81.571 149.529 82.312 147.382 82.312H144.418V76.859H147.382ZM42.6225 111.031H36.3145V98.89H35.1935V112H42.6225V111.031ZM43.5902 112H44.7682L46.3072 107.839H52.9192L54.4582 112H55.6362L50.7532 98.89H48.4732L43.5902 112ZM49.6132 98.947L52.5582 106.87H46.6682L49.6132 98.947ZM72.9027 107.022C72.9027 109.435 71.3067 111.221 68.5897 111.221C65.8347 111.221 63.5927 109.017 63.5927 105.445C63.5927 101.873 65.7967 99.669 68.5707 99.669C71.0787 99.669 72.4467 101.303 72.7507 103.108H73.8907C73.5487 100.714 71.5917 98.7 68.4757 98.7C64.7707 98.7 62.3957 101.778 62.3957 105.445C62.3957 109.112 64.8087 112.19 68.4377 112.19C70.9077 112.19 72.4087 110.765 72.9407 109.074H72.9787V112H74.0427V105.426H68.2287V106.395H72.9027V107.022ZM85.2978 111.031H78.9138V105.711H84.9748V104.742H78.9138V99.859H85.1458V98.89H77.7928V112H85.2978V111.031ZM98.0789 108.561C98.0789 106.642 96.8439 105.502 94.2789 104.837L92.5119 104.381C90.4219 103.849 89.4149 103.279 89.4149 102.044C89.4149 100.657 90.7069 99.669 92.7399 99.669C94.9249 99.669 96.3499 100.866 96.5209 102.785H97.6609C97.4519 100.353 95.6279 98.7 92.6639 98.7C90.0799 98.7 88.2179 100.182 88.2179 102.082C88.2179 103.925 89.5859 104.856 91.9989 105.464L93.8229 105.939C95.8179 106.452 96.8629 107.288 96.8629 108.561C96.8629 110.366 95.3049 111.221 93.1579 111.221C90.9729 111.221 89.1869 109.53 89.0349 107.383H87.8949C88.0849 109.967 90.0609 112.19 93.1959 112.19C96.1599 112.19 98.0789 110.86 98.0789 108.561ZM99.4884 99.859H104.067V112H105.169V99.859H109.748V98.89H99.4884V99.859ZM113.558 112V98.89H112.437V112H113.558ZM123.281 97.94L125.922 95.375H124.326L122.255 97.94H123.281ZM129.304 105.445C129.304 101.816 126.834 98.7 123.186 98.7C119.538 98.7 117.068 101.816 117.068 105.445C117.068 109.074 119.538 112.19 123.186 112.19C126.834 112.19 129.304 109.074 129.304 105.445ZM118.265 105.445C118.265 101.892 120.545 99.669 123.186 99.669C125.827 99.669 128.107 101.892 128.107 105.445C128.107 108.998 125.827 111.221 123.186 111.221C120.545 111.221 118.265 108.998 118.265 105.445ZM142.889 98.89H141.768V111.943L135.137 98.89H132.819V112H133.94V98.947L140.571 112H142.889V98.89ZM152.717 112H156.099C160.678 112 162.996 109.188 162.996 105.445C162.996 101.702 160.678 98.89 156.099 98.89H152.717V112ZM155.909 99.859C159.766 99.859 161.799 101.892 161.799 105.445C161.799 108.998 159.766 111.031 155.909 111.031H153.838V99.859H155.909ZM174.04 111.031H167.656V105.711H173.717V104.742H167.656V99.859H173.888V98.89H166.535V112H174.04V111.031ZM71.8668 134.031H65.4828V128.711H71.5438V127.742H65.4828V122.859H71.7148V121.89H64.3618V135H71.8668V134.031ZM86.0398 135H87.8258L85.0518 133.024C86.0398 131.808 86.6098 130.193 86.6098 128.445C86.6098 124.816 84.1398 121.7 80.4918 121.7C76.8438 121.7 74.3738 124.816 74.3738 128.445C74.3738 132.074 76.8438 135.19 80.4918 135.19C81.9928 135.19 83.3038 134.658 84.3108 133.784L86.0398 135ZM75.5708 128.445C75.5708 124.892 77.8508 122.669 80.4918 122.669C83.1328 122.669 85.4128 124.892 85.4128 128.445C85.4128 130.079 84.9378 131.428 84.1588 132.397L81.6888 130.649H79.9028L83.4368 133.157C82.6008 133.841 81.5748 134.221 80.4918 134.221C77.8508 134.221 75.5708 131.998 75.5708 128.445ZM99.4529 129.737V121.89H98.3319V130.06C98.3319 132.72 97.0969 134.221 94.7029 134.221C92.3089 134.221 91.0739 132.72 91.0739 130.06V121.89H89.9529V129.737C89.9529 133.556 91.7959 135.19 94.7029 135.19C97.6099 135.19 99.4529 133.556 99.4529 129.737ZM104.803 135V121.89H103.682V135H104.803ZM109.206 135H110.327V129.661H113.253C116.464 129.661 118.478 128.312 118.478 125.766C118.478 123.22 116.464 121.89 113.253 121.89H109.206V135ZM113.348 122.859C115.647 122.859 117.281 123.657 117.281 125.766C117.281 127.894 115.647 128.711 113.348 128.711H110.327V122.859H113.348ZM132.939 128.445C132.939 124.816 130.469 121.7 126.821 121.7C123.173 121.7 120.703 124.816 120.703 128.445C120.703 132.074 123.173 135.19 126.821 135.19C130.469 135.19 132.939 132.074 132.939 128.445ZM121.9 128.445C121.9 124.892 124.18 122.669 126.821 122.669C129.462 122.669 131.742 124.892 131.742 128.445C131.742 131.998 129.462 134.221 126.821 134.221C124.18 134.221 121.9 131.998 121.9 128.445ZM145.63 131.561C145.63 129.642 144.395 128.502 141.83 127.837L140.063 127.381C137.973 126.849 136.966 126.279 136.966 125.044C136.966 123.657 138.258 122.669 140.291 122.669C142.476 122.669 143.901 123.866 144.072 125.785H145.212C145.003 123.353 143.179 121.7 140.215 121.7C137.631 121.7 135.769 123.182 135.769 125.082C135.769 126.925 137.137 127.856 139.55 128.464L141.374 128.939C143.369 129.452 144.414 130.288 144.414 131.561C144.414 133.366 142.856 134.221 140.709 134.221C138.524 134.221 136.738 132.53 136.586 130.383H135.446C135.636 132.967 137.612 135.19 140.747 135.19C143.711 135.19 145.63 133.86 145.63 131.561Z" fill="#232323"/>
<circle cx="104.384" cy="104.384" r="103.884" stroke="#232323"/>
<path d="M208.769 176.449L241.088 208.768" stroke="#232323" stroke-linecap="round" stroke-linejoin="round"/>
<path d="M241.088 176.449V208.768H208.769" stroke="#232323" stroke-linecap="round" stroke-linejoin="round"/>
<path d="M567.209 83.882V82.913H560.388V77.859H567.323V76.89H559.267V90H560.388V83.882H567.209ZM568.387 90H569.565L571.104 85.839H577.716L579.255 90H580.433L575.55 76.89H573.27L568.387 90ZM574.41 76.947L577.355 84.87H571.465L574.41 76.947ZM580.776 76.89L585.659 90H587.939L592.822 76.89H591.644L586.799 89.943L581.954 76.89H580.776ZM606.665 83.445C606.665 79.816 604.195 76.7 600.547 76.7C596.899 76.7 594.429 79.816 594.429 83.445C594.429 87.074 596.899 90.19 600.547 90.19C604.195 90.19 606.665 87.074 606.665 83.445ZM595.626 83.445C595.626 79.892 597.906 77.669 600.547 77.669C603.188 77.669 605.468 79.892 605.468 83.445C605.468 86.998 603.188 89.221 600.547 89.221C597.906 89.221 595.626 86.998 595.626 83.445ZM610.179 90H611.3V84.262H614.169C614.359 84.262 614.53 84.262 614.72 84.243L618.045 90H619.337L615.898 84.11C617.931 83.692 619.09 82.514 619.09 80.576C619.09 78.144 617.247 76.89 614.169 76.89H610.179V90ZM614.264 77.859C616.411 77.859 617.893 78.562 617.893 80.576C617.893 82.571 616.411 83.312 614.264 83.312H611.3V77.859H614.264ZM630.277 89.031H623.893V83.711H629.954V82.742H623.893V77.859H630.125V76.89H622.772V90H630.277V89.031ZM644.488 85.364H643.348C642.816 87.891 641.049 89.221 638.883 89.221C636.261 89.221 633.981 86.998 633.981 83.445C633.981 79.949 636.223 77.669 638.788 77.669C641.011 77.669 642.721 79.037 643.253 81.564H644.393C643.823 78.733 641.828 76.7 638.75 76.7C635.178 76.7 632.784 79.892 632.784 83.445C632.784 87.112 635.216 90.19 638.788 90.19C641.866 90.19 643.937 88.195 644.488 85.364ZM655.297 89.031H648.913V83.711H654.974V82.742H648.913V77.859H655.145V76.89H647.792V90H655.297V89.031ZM658.901 90H660.022V84.262H662.891C663.081 84.262 663.252 84.262 663.442 84.243L666.767 90H668.059L664.62 84.11C666.653 83.692 667.812 82.514 667.812 80.576C667.812 78.144 665.969 76.89 662.891 76.89H658.901V90ZM662.986 77.859C665.133 77.859 666.615 78.562 666.615 80.576C666.615 82.571 665.133 83.312 662.986 83.312H660.022V77.859H662.986ZM684.336 89.031H678.028V76.89H676.907V90H684.336V89.031ZM685.304 90H686.482L688.021 85.839H694.633L696.172 90H697.35L692.467 76.89H690.187L685.304 90ZM691.327 76.947L694.272 84.87H688.382L691.327 76.947ZM554.982 112.031H548.598V106.711H554.659V105.742H548.598V100.859H554.83V99.89H547.477V113H554.982V112.031ZM566.528 106.882V105.913H559.707V100.859H566.642V99.89H558.586V113H559.707V106.882H566.528ZM571.131 113V99.89H570.01V113H571.131ZM586.345 108.364H585.205C584.673 110.891 582.906 112.221 580.74 112.221C578.118 112.221 575.838 109.998 575.838 106.445C575.838 102.949 578.08 100.669 580.645 100.669C582.868 100.669 584.578 102.037 585.11 104.564H586.25C585.68 101.733 583.685 99.7 580.607 99.7C577.035 99.7 574.641 102.892 574.641 106.445C574.641 110.112 577.073 113.19 580.645 113.19C583.723 113.19 585.794 111.195 586.345 108.364ZM590.77 113V99.89H589.649V113H590.77ZM602.678 112.031H596.294V106.711H602.355V105.742H596.294V100.859H602.526V99.89H595.173V113H602.678V112.031ZM616.352 99.89H615.231V112.943L608.6 99.89H606.282V113H607.403V99.947L614.034 113H616.352V99.89ZM631.579 108.364H630.439C629.907 110.891 628.14 112.221 625.974 112.221C623.352 112.221 621.072 109.998 621.072 106.445C621.072 102.949 623.314 100.669 625.879 100.669C628.102 100.669 629.812 102.037 630.344 104.564H631.484C630.914 101.733 628.919 99.7 625.841 99.7C622.269 99.7 619.875 102.892 619.875 106.445C619.875 110.112 622.307 113.19 625.879 113.19C628.957 113.19 631.028 111.195 631.579 108.364ZM636.004 113V99.89H634.883V113H636.004ZM638.678 113H639.856L641.395 108.839H648.007L649.546 113H650.724L645.841 99.89H643.561L638.678 113ZM644.701 99.947L647.646 107.87H641.756L644.701 99.947ZM658.358 113H661.74C666.319 113 668.637 110.188 668.637 106.445C668.637 102.702 666.319 99.89 661.74 99.89H658.358V113ZM661.55 100.859C665.407 100.859 667.44 102.892 667.44 106.445C667.44 109.998 665.407 112.031 661.55 112.031H659.479V100.859H661.55ZM679.681 112.031H673.297V106.711H679.358V105.742H673.297V100.859H679.529V99.89H672.176V113H679.681V112.031ZM696.127 112.031H689.819V99.89H688.698V113H696.127V112.031ZM697.095 113H698.273L699.812 108.839H706.424L707.963 113H709.141L704.258 99.89H701.978L697.095 113ZM703.118 99.947L706.063 107.87H700.173L703.118 99.947ZM567.128 129.445C567.128 125.816 564.658 122.7 561.01 122.7C557.362 122.7 554.892 125.816 554.892 129.445C554.892 133.074 557.362 136.19 561.01 136.19C564.658 136.19 567.128 133.074 567.128 129.445ZM556.089 129.445C556.089 125.892 558.369 123.669 561.01 123.669C563.651 123.669 565.931 125.892 565.931 129.445C565.931 132.998 563.651 135.221 561.01 135.221C558.369 135.221 556.089 132.998 556.089 129.445ZM570.643 136H571.764V130.262H574.633C574.823 130.262 574.994 130.262 575.184 130.243L578.509 136H579.801L576.362 130.11C578.395 129.692 579.554 128.514 579.554 126.576C579.554 124.144 577.711 122.89 574.633 122.89H570.643V136ZM574.728 123.859C576.875 123.859 578.357 124.562 578.357 126.576C578.357 128.571 576.875 129.312 574.728 129.312H571.764V123.859H574.728ZM592.776 131.022C592.776 133.435 591.18 135.221 588.463 135.221C585.708 135.221 583.466 133.017 583.466 129.445C583.466 125.873 585.67 123.669 588.444 123.669C590.952 123.669 592.32 125.303 592.624 127.108H593.764C593.422 124.714 591.465 122.7 588.349 122.7C584.644 122.7 582.269 125.778 582.269 129.445C582.269 133.112 584.682 136.19 588.311 136.19C590.781 136.19 592.282 134.765 592.814 133.074H592.852V136H593.916V129.426H588.102V130.395H592.776V131.022ZM595.937 136H597.115L598.654 131.839H605.266L606.805 136H607.983L603.1 122.89H600.82L595.937 136ZM601.96 122.947L604.905 130.87H599.015L601.96 122.947ZM620.738 122.89H619.617V135.943L612.986 122.89H610.668V136H611.789V122.947L618.42 136H620.738V122.89ZM626.275 136V122.89H625.154V136H626.275ZM629.519 135.031V136H638.62V135.031H630.868L638.449 123.859V122.89H629.633V123.859H637.1L629.519 135.031ZM640.095 136H641.273L642.812 131.839H649.424L650.963 136H652.141L647.258 122.89H644.978L640.095 136ZM646.118 122.947L649.063 130.87H643.173L646.118 122.947ZM665.451 131.364H664.311C663.779 133.891 662.012 135.221 659.846 135.221C657.224 135.221 654.944 132.998 654.944 129.445C654.944 125.949 657.186 123.669 659.751 123.669C661.974 123.669 663.684 125.037 664.216 127.564H665.356C664.786 124.733 662.791 122.7 659.713 122.7C656.141 122.7 653.747 125.892 653.747 129.445C653.747 133.112 656.179 136.19 659.751 136.19C662.829 136.19 664.9 134.195 665.451 131.364ZM669.876 136V122.89H668.755V136H669.876ZM679.599 121.94L682.24 119.375H680.644L678.573 121.94H679.599ZM685.622 129.445C685.622 125.816 683.152 122.7 679.504 122.7C675.856 122.7 673.386 125.816 673.386 129.445C673.386 133.074 675.856 136.19 679.504 136.19C683.152 136.19 685.622 133.074 685.622 129.445ZM674.583 129.445C674.583 125.892 676.863 123.669 679.504 123.669C682.145 123.669 684.425 125.892 684.425 129.445C684.425 132.998 682.145 135.221 679.504 135.221C676.863 135.221 674.583 132.998 674.583 129.445ZM699.207 122.89H698.086V135.943L691.455 122.89H689.137V136H690.258V122.947L696.889 136H699.207V122.89Z" fill="#232323"/>
<circle cx="627.384" cy="104.384" r="103.884" stroke="#232323"/>
<path d="M523.231 176.449L490.912 208.768" stroke="#232323" stroke-linecap="round" stroke-linejoin="round"/>
<path d="M523.231 208.768L490.912 208.768L490.912 176.449" stroke="#232323" stroke-linecap="round" stroke-linejoin="round"/>
<path d="M561.15 397H562.271V391.262H565.14C565.33 391.262 565.501 391.262 565.691 391.243L569.016 397H570.308L566.869 391.11C568.902 390.692 570.061 389.514 570.061 387.576C570.061 385.144 568.218 383.89 565.14 383.89H561.15V397ZM565.235 384.859C567.382 384.859 568.864 385.562 568.864 387.576C568.864 389.571 567.382 390.312 565.235 390.312H562.271V384.859H565.235ZM581.249 396.031H574.865V390.711H580.926V389.742H574.865V384.859H581.097V383.89H573.744V397H581.249V396.031ZM594.923 383.89H593.802V396.943L587.171 383.89H584.853V397H585.974V383.947L592.605 397H594.923V383.89ZM597.629 384.859H602.208V397H603.31V384.859H607.889V383.89H597.629V384.859ZM607.698 397H608.876L610.415 392.839H617.027L618.566 397H619.744L614.861 383.89H612.581L607.698 397ZM613.721 383.947L616.666 391.87H610.776L613.721 383.947ZM630.789 387.253C630.789 384.707 628.927 383.89 626.039 383.89H622.429V397H626.647C629.573 397 631.397 396.012 631.397 393.352C631.397 391.49 630.314 390.35 628.338 390.179V390.16C629.725 389.837 630.789 388.868 630.789 387.253ZM626.039 384.859C628.433 384.859 629.592 385.391 629.592 387.253C629.592 389.134 628.3 389.704 625.963 389.704H623.55V384.859H626.039ZM626.286 390.673C628.756 390.673 630.2 391.3 630.2 393.352C630.2 395.404 628.889 396.031 626.571 396.031H623.55V390.673H626.286ZM636.051 397V383.89H634.93V397H636.051ZM647.883 396.031H641.575V383.89H640.454V397H647.883V396.031ZM651.701 397V383.89H650.58V397H651.701ZM654.945 396.031V397H664.046V396.031H656.294L663.875 384.859V383.89H655.059V384.859H662.526L654.945 396.031ZM665.521 397H666.699L668.238 392.839H674.85L676.389 397H677.567L672.684 383.89H670.404L665.521 397ZM671.544 383.947L674.489 391.87H668.599L671.544 383.947ZM680.251 397H681.372V391.262H684.241C684.431 391.262 684.602 391.262 684.792 391.243L688.117 397H689.409L685.97 391.11C688.003 390.692 689.162 389.514 689.162 387.576C689.162 385.144 687.319 383.89 684.241 383.89H680.251V397ZM684.336 384.859C686.483 384.859 687.965 385.562 687.965 387.576C687.965 389.571 686.483 390.312 684.336 390.312H681.372V384.859H684.336ZM552.816 419.031H546.508V406.89H545.387V420H552.816V419.031ZM553.783 420H554.961L556.5 415.839H563.112L564.651 420H565.829L560.946 406.89H558.666L553.783 420ZM559.806 406.947L562.751 414.87H556.861L559.806 406.947ZM574.584 420V406.89H573.463V420H574.584ZM589.057 406.89H587.936V419.943L581.305 406.89H578.987V420H580.108V406.947L586.739 420H589.057V406.89ZM591.725 406.89L596.608 420H598.888L603.771 406.89H602.593L597.748 419.943L592.903 406.89H591.725ZM613.943 419.031H607.559V413.711H613.62V412.742H607.559V407.859H613.791V406.89H606.438V420H613.943V419.031ZM617.547 420H618.668V414.262H621.537C621.727 414.262 621.898 414.262 622.088 414.243L625.413 420H626.705L623.266 414.11C625.299 413.692 626.458 412.514 626.458 410.576C626.458 408.144 624.615 406.89 621.537 406.89H617.547V420ZM621.632 407.859C623.779 407.859 625.261 408.562 625.261 410.576C625.261 412.571 623.779 413.312 621.632 413.312H618.668V407.859H621.632ZM639.317 416.561C639.317 414.642 638.082 413.502 635.517 412.837L633.75 412.381C631.66 411.849 630.653 411.279 630.653 410.044C630.653 408.657 631.945 407.669 633.978 407.669C636.163 407.669 637.588 408.866 637.759 410.785H638.899C638.69 408.353 636.866 406.7 633.902 406.7C631.318 406.7 629.456 408.182 629.456 410.082C629.456 411.925 630.824 412.856 633.237 413.464L635.061 413.939C637.056 414.452 638.101 415.288 638.101 416.561C638.101 418.366 636.543 419.221 634.396 419.221C632.211 419.221 630.425 417.53 630.273 415.383H629.133C629.323 417.967 631.299 420.19 634.434 420.19C637.398 420.19 639.317 418.86 639.317 416.561ZM643.854 420V406.89H642.733V420H643.854ZM653.578 405.94L656.219 403.375H654.623L652.552 405.94H653.578ZM659.601 413.445C659.601 409.816 657.131 406.7 653.483 406.7C649.835 406.7 647.365 409.816 647.365 413.445C647.365 417.074 649.835 420.19 653.483 420.19C657.131 420.19 659.601 417.074 659.601 413.445ZM648.562 413.445C648.562 409.892 650.842 407.669 653.483 407.669C656.124 407.669 658.404 409.892 658.404 413.445C658.404 416.998 656.124 419.221 653.483 419.221C650.842 419.221 648.562 416.998 648.562 413.445ZM673.185 406.89H672.064V419.943L665.433 406.89H663.115V420H664.236V406.947L670.867 420H673.185V406.89ZM690.518 419.031H684.134V413.711H690.195V412.742H684.134V407.859H690.366V406.89H683.013V420H690.518V419.031ZM704.193 406.89H703.072V419.943L696.441 406.89H694.123V420H695.244V406.947L701.875 420H704.193V406.89ZM582.462 442.031H576.078V436.711H582.139V435.742H576.078V430.859H582.31V429.89H574.957V443H582.462V442.031ZM593.495 442.031H587.187V429.89H586.066V443H593.495V442.031ZM598.595 430.859H603.174V443H604.276V430.859H608.855V429.89H598.595V430.859ZM608.665 443H609.843L611.382 438.839H617.994L619.533 443H620.711L615.828 429.89H613.548L608.665 443ZM614.688 429.947L617.633 437.87H611.743L614.688 429.947ZM630.824 442.031H624.516V429.89H623.395V443H630.824V442.031ZM641.026 442.031H634.642V436.711H640.703V435.742H634.642V430.859H640.874V429.89H633.521V443H641.026V442.031ZM654.7 429.89H653.579V442.943L646.948 429.89H644.63V443H645.751V429.947L652.382 443H654.7V429.89ZM657.406 430.859H661.985V443H663.087V430.859H667.666V429.89H657.406V430.859ZM680.937 436.445C680.937 432.816 678.467 429.7 674.819 429.7C671.171 429.7 668.701 432.816 668.701 436.445C668.701 440.074 671.171 443.19 674.819 443.19C678.467 443.19 680.937 440.074 680.937 436.445ZM669.898 436.445C669.898 432.892 672.178 430.669 674.819 430.669C677.46 430.669 679.74 432.892 679.74 436.445C679.74 439.998 677.46 442.221 674.819 442.221C672.178 442.221 669.898 439.998 669.898 436.445Z" fill="#232323"/>
<circle cx="627.384" cy="411.384" r="103.884" stroke="#232323"/>
<path d="M523.231 339.795L490.912 307.475" stroke="#232323" stroke-linecap="round" stroke-linejoin="round"/>
<path d="M490.912 339.795L490.912 307.475L523.231 307.475" stroke="#232323" stroke-linecap="round" stroke-linejoin="round"/>
<path d="M31.631 397H32.752V391.661H35.678C38.889 391.661 40.903 390.312 40.903 387.766C40.903 385.22 38.889 383.89 35.678 383.89H31.631V397ZM35.773 384.859C38.072 384.859 39.706 385.657 39.706 387.766C39.706 389.894 38.072 390.711 35.773 390.711H32.752V384.859H35.773ZM55.3633 390.445C55.3633 386.816 52.8933 383.7 49.2453 383.7C45.5973 383.7 43.1273 386.816 43.1273 390.445C43.1273 394.074 45.5973 397.19 49.2453 397.19C52.8933 397.19 55.3633 394.074 55.3633 390.445ZM44.3243 390.445C44.3243 386.892 46.6043 384.669 49.2453 384.669C51.8863 384.669 54.1663 386.892 54.1663 390.445C54.1663 393.998 51.8863 396.221 49.2453 396.221C46.6043 396.221 44.3243 393.998 44.3243 390.445ZM56.4067 384.859H60.9857V397H62.0877V384.859H66.6667V383.89H56.4067V384.859ZM76.8606 396.031H70.4766V390.711H76.5376V389.742H70.4766V384.859H76.7086V383.89H69.3556V397H76.8606V396.031ZM90.5347 383.89H89.4137V396.943L82.7827 383.89H80.4647V397H81.5857V383.947L88.2167 397H90.5347V383.89ZM105.762 392.364H104.622C104.09 394.891 102.323 396.221 100.157 396.221C97.5347 396.221 95.2547 393.998 95.2547 390.445C95.2547 386.949 97.4967 384.669 100.062 384.669C102.285 384.669 103.995 386.037 104.527 388.564H105.667C105.097 385.733 103.102 383.7 100.024 383.7C96.4517 383.7 94.0577 386.892 94.0577 390.445C94.0577 394.112 96.4897 397.19 100.062 397.19C103.14 397.19 105.211 395.195 105.762 392.364ZM110.187 397V383.89H109.066V397H110.187ZM112.861 397H114.039L115.578 392.839H122.19L123.729 397H124.907L120.024 383.89H117.744L112.861 397ZM118.884 383.947L121.829 391.87H115.939L118.884 383.947ZM127.591 397H128.712V391.262H131.581C131.771 391.262 131.942 391.262 132.132 391.243L135.457 397H136.749L133.31 391.11C135.343 390.692 136.502 389.514 136.502 387.576C136.502 385.144 134.659 383.89 131.581 383.89H127.591V397ZM131.676 384.859C133.823 384.859 135.305 385.562 135.305 387.576C135.305 389.571 133.823 390.312 131.676 390.312H128.712V384.859H131.676ZM153.027 396.031H146.719V383.89H145.598V397H153.027V396.031ZM153.994 397H155.172L156.711 392.839H163.323L164.862 397H166.04L161.157 383.89H158.877L153.994 397ZM160.017 383.947L162.962 391.87H157.072L160.017 383.947ZM177.791 393.561C177.791 391.642 176.556 390.502 173.991 389.837L172.224 389.381C170.134 388.849 169.127 388.279 169.127 387.044C169.127 385.657 170.419 384.669 172.452 384.669C174.637 384.669 176.062 385.866 176.233 387.785H177.373C177.164 385.353 175.34 383.7 172.376 383.7C169.792 383.7 167.93 385.182 167.93 387.082C167.93 388.925 169.298 389.856 171.711 390.464L173.535 390.939C175.53 391.452 176.575 392.288 176.575 393.561C176.575 395.366 175.017 396.221 172.87 396.221C170.685 396.221 168.899 394.53 168.747 392.383H167.607C167.797 394.967 169.773 397.19 172.908 397.19C175.872 397.19 177.791 395.86 177.791 393.561ZM31.9797 415.364H30.8397C30.3077 417.891 28.5407 419.221 26.3747 419.221C23.7527 419.221 21.4727 416.998 21.4727 413.445C21.4727 409.949 23.7147 407.669 26.2797 407.669C28.5027 407.669 30.2127 409.037 30.7447 411.564H31.8847C31.3147 408.733 29.3197 406.7 26.2417 406.7C22.6697 406.7 20.2757 409.892 20.2757 413.445C20.2757 417.112 22.7077 420.19 26.2797 420.19C29.3577 420.19 31.4287 418.195 31.9797 415.364ZM33.5547 420H34.7327L36.2717 415.839H42.8837L44.4227 420H45.6007L40.7177 406.89H38.4377L33.5547 420ZM39.5777 406.947L42.5227 414.87H36.6327L39.5777 406.947ZM48.2853 420H49.4063V414.661H52.3323C55.5433 414.661 57.5573 413.312 57.5573 410.766C57.5573 408.22 55.5433 406.89 52.3323 406.89H48.2853V420ZM52.4273 407.859C54.7263 407.859 56.3603 408.657 56.3603 410.766C56.3603 412.894 54.7263 413.711 52.4273 413.711H49.4063V407.859H52.4273ZM58.1478 420H59.3258L60.8648 415.839H67.4768L69.0158 420H70.1938L65.3108 406.89H63.0308L58.1478 420ZM64.1708 406.947L67.1158 414.87H61.2258L64.1708 406.947ZM83.5039 415.364H82.3639C81.8319 417.891 80.0649 419.221 77.8989 419.221C75.2769 419.221 72.9969 416.998 72.9969 413.445C72.9969 409.949 75.2389 407.669 77.8039 407.669C80.0269 407.669 81.7369 409.037 82.2689 411.564H83.4089C82.8389 408.733 80.8439 406.7 77.7659 406.7C74.1939 406.7 71.7999 409.892 71.7999 413.445C71.7999 417.112 74.2319 420.19 77.8039 420.19C80.8819 420.19 82.9529 418.195 83.5039 415.364ZM87.9288 420V406.89H86.8078V420H87.9288ZM92.3319 420H95.7139C100.293 420 102.611 417.188 102.611 413.445C102.611 409.702 100.293 406.89 95.7139 406.89H92.3319V420ZM95.5239 407.859C99.3809 407.859 101.414 409.892 101.414 413.445C101.414 416.998 99.3809 419.031 95.5239 419.031H93.4529V407.859H95.5239ZM104.235 420H105.413L106.952 415.839H113.564L115.103 420H116.281L111.398 406.89H109.118L104.235 420ZM110.258 406.947L113.203 414.87H107.313L110.258 406.947ZM118.966 420H122.348C126.927 420 129.245 417.188 129.245 413.445C129.245 409.702 126.927 406.89 122.348 406.89H118.966V420ZM122.158 407.859C126.015 407.859 128.048 409.892 128.048 413.445C128.048 416.998 126.015 419.031 122.158 419.031H120.087V407.859H122.158ZM140.289 419.031H133.905V413.711H139.966V412.742H133.905V407.859H140.137V406.89H132.784V420H140.289V419.031ZM153.07 416.561C153.07 414.642 151.835 413.502 149.27 412.837L147.503 412.381C145.413 411.849 144.406 411.279 144.406 410.044C144.406 408.657 145.698 407.669 147.731 407.669C149.916 407.669 151.341 408.866 151.512 410.785H152.652C152.443 408.353 150.619 406.7 147.655 406.7C145.071 406.7 143.209 408.182 143.209 410.082C143.209 411.925 144.577 412.856 146.99 413.464L148.814 413.939C150.809 414.452 151.854 415.288 151.854 416.561C151.854 418.366 150.296 419.221 148.149 419.221C145.964 419.221 144.178 417.53 144.026 415.383H142.886C143.076 417.967 145.052 420.19 148.187 420.19C151.151 420.19 153.07 418.86 153.07 416.561ZM161.899 420H165.281C169.86 420 172.178 417.188 172.178 413.445C172.178 409.702 169.86 406.89 165.281 406.89H161.899V420ZM165.091 407.859C168.948 407.859 170.981 409.892 170.981 413.445C170.981 416.998 168.948 419.031 165.091 419.031H163.02V407.859H165.091ZM183.222 419.031H176.838V413.711H182.899V412.742H176.838V407.859H183.07V406.89H175.717V420H183.222V419.031ZM41.8658 442.031H35.5578V429.89H34.4368V443H41.8658V442.031ZM42.8335 443H44.0115L45.5505 438.839H52.1625L53.7015 443H54.8795L49.9965 429.89H47.7165L42.8335 443ZM48.8565 429.947L51.8015 437.87H45.9115L48.8565 429.947ZM66.6298 439.561C66.6298 437.642 65.3948 436.502 62.8298 435.837L61.0628 435.381C58.9728 434.849 57.9658 434.279 57.9658 433.044C57.9658 431.657 59.2578 430.669 61.2908 430.669C63.4758 430.669 64.9008 431.866 65.0718 433.785H66.2118C66.0028 431.353 64.1788 429.7 61.2148 429.7C58.6308 429.7 56.7688 431.182 56.7688 433.082C56.7688 434.925 58.1368 435.856 60.5498 436.464L62.3738 436.939C64.3688 437.452 65.4138 438.288 65.4138 439.561C65.4138 441.366 63.8558 442.221 61.7088 442.221C59.5238 442.221 57.7378 440.53 57.5858 438.383H56.4458C56.6358 440.967 58.6118 443.19 61.7468 443.19C64.7108 443.19 66.6298 441.86 66.6298 439.561ZM75.459 443H76.58V437.661H79.506C82.717 437.661 84.731 436.312 84.731 433.766C84.731 431.22 82.717 429.89 79.506 429.89H75.459V443ZM79.601 430.859C81.9 430.859 83.534 431.657 83.534 433.766C83.534 435.894 81.9 436.711 79.601 436.711H76.58V430.859H79.601ZM95.3534 442.031H88.9694V436.711H95.0304V435.742H88.9694V430.859H95.2014V429.89H87.8484V443H95.3534V442.031ZM98.9574 443H100.078V437.262H102.947C103.137 437.262 103.308 437.262 103.498 437.243L106.823 443H108.115L104.676 437.11C106.709 436.692 107.868 435.514 107.868 433.576C107.868 431.144 106.025 429.89 102.947 429.89H98.9574V443ZM103.042 430.859C105.189 430.859 106.671 431.562 106.671 433.576C106.671 435.571 105.189 436.312 103.042 436.312H100.078V430.859H103.042ZM120.728 439.561C120.728 437.642 119.493 436.502 116.928 435.837L115.161 435.381C113.071 434.849 112.064 434.279 112.064 433.044C112.064 431.657 113.356 430.669 115.389 430.669C117.574 430.669 118.999 431.866 119.17 433.785H120.31C120.101 431.353 118.277 429.7 115.313 429.7C112.729 429.7 110.867 431.182 110.867 433.082C110.867 434.925 112.235 435.856 114.648 436.464L116.472 436.939C118.467 437.452 119.512 438.288 119.512 439.561C119.512 441.366 117.954 442.221 115.807 442.221C113.622 442.221 111.836 440.53 111.684 438.383H110.544C110.734 440.967 112.71 443.19 115.845 443.19C118.809 443.19 120.728 441.86 120.728 439.561ZM135.487 436.445C135.487 432.816 133.017 429.7 129.369 429.7C125.721 429.7 123.251 432.816 123.251 436.445C123.251 440.074 125.721 443.19 129.369 443.19C133.017 443.19 135.487 440.074 135.487 436.445ZM124.448 436.445C124.448 432.892 126.728 430.669 129.369 430.669C132.01 430.669 134.29 432.892 134.29 436.445C134.29 439.998 132.01 442.221 129.369 442.221C126.728 442.221 124.448 439.998 124.448 436.445ZM149.071 429.89H147.95V442.943L141.319 429.89H139.001V443H140.122V429.947L146.753 443H149.071V429.89ZM151.758 443H152.936L154.475 438.839H161.087L162.626 443H163.804L158.921 429.89H156.641L151.758 443ZM157.781 429.947L160.726 437.87H154.836L157.781 429.947ZM175.555 439.561C175.555 437.642 174.32 436.502 171.755 435.837L169.988 435.381C167.898 434.849 166.891 434.279 166.891 433.044C166.891 431.657 168.183 430.669 170.216 430.669C172.401 430.669 173.826 431.866 173.997 433.785H175.137C174.928 431.353 173.104 429.7 170.14 429.7C167.556 429.7 165.694 431.182 165.694 433.082C165.694 434.925 167.062 435.856 169.475 436.464L171.299 436.939C173.294 437.452 174.339 438.288 174.339 439.561C174.339 441.366 172.781 442.221 170.634 442.221C168.449 442.221 166.663 440.53 166.511 438.383H165.371C165.561 440.967 167.537 443.19 170.672 443.19C173.636 443.19 175.555 441.86 175.555 439.561Z" fill="#232323"/>
<circle cx="104.384" cy="411.384" r="103.884" stroke="#232323"/>
<path d="M208.769 339.795L241.088 307.475" stroke="#232323" stroke-linecap="round" stroke-linejoin="round"/>
<path d="M208.769 307.475L241.088 307.475L241.088 339.795" stroke="#232323" stroke-linecap="round" stroke-linejoin="round"/>
</svg>
