<svg width="242" height="210" viewBox="0 0 242 210" fill="none" xmlns="http://www.w3.org/2000/svg">
<path d="M71.1504 91H72.2714V85.262H75.1404C75.3304 85.262 75.5014 85.262 75.6914 85.243L79.0164 91H80.3084L76.8694 85.11C78.9024 84.692 80.0614 83.514 80.0614 81.576C80.0614 79.144 78.2184 77.89 75.1404 77.89H71.1504V91ZM75.2354 78.859C77.3824 78.859 78.8644 79.562 78.8644 81.576C78.8644 83.571 77.3824 84.312 75.2354 84.312H72.2714V78.859H75.2354ZM91.2488 90.031H84.8648V84.711H90.9258V83.742H84.8648V78.859H91.0968V77.89H83.7438V91H91.2488V90.031ZM104.923 77.89H103.802V90.943L97.1709 77.89H94.8529V91H95.9739V77.947L102.605 91H104.923V77.89ZM107.629 78.859H112.208V91H113.31V78.859H117.889V77.89H107.629V78.859ZM117.698 91H118.876L120.415 86.839H127.027L128.566 91H129.744L124.861 77.89H122.581L117.698 91ZM123.721 77.947L126.666 85.87H120.776L123.721 77.947ZM140.789 81.253C140.789 78.707 138.927 77.89 136.039 77.89H132.429V91H136.647C139.573 91 141.397 90.012 141.397 87.352C141.397 85.49 140.314 84.35 138.338 84.179V84.16C139.725 83.837 140.789 82.868 140.789 81.253ZM136.039 78.859C138.433 78.859 139.592 79.391 139.592 81.253C139.592 83.134 138.3 83.704 135.963 83.704H133.55V78.859H136.039ZM136.286 84.673C138.756 84.673 140.2 85.3 140.2 87.352C140.2 89.404 138.889 90.031 136.571 90.031H133.55V84.673H136.286ZM146.051 91V77.89H144.93V91H146.051ZM157.883 90.031H151.575V77.89H150.454V91H157.883V90.031ZM161.701 91V77.89H160.58V91H161.701ZM164.945 90.031V91H174.046V90.031H166.294L173.875 78.859V77.89H165.059V78.859H172.526L164.945 90.031ZM175.521 91H176.699L178.238 86.839H184.85L186.389 91H187.567L182.684 77.89H180.404L175.521 91ZM181.544 77.947L184.489 85.87H178.599L181.544 77.947ZM190.251 91H191.372V85.262H194.241C194.431 85.262 194.602 85.262 194.792 85.243L198.117 91H199.409L195.97 85.11C198.003 84.692 199.162 83.514 199.162 81.576C199.162 79.144 197.319 77.89 194.241 77.89H190.251V91ZM194.336 78.859C196.483 78.859 197.965 79.562 197.965 81.576C197.965 83.571 196.483 84.312 194.336 84.312H191.372V78.859H194.336ZM62.8157 113.031H56.5077V100.89H55.3867V114H62.8157V113.031ZM63.7833 114H64.9613L66.5003 109.839H73.1123L74.6513 114H75.8293L70.9463 100.89H68.6663L63.7833 114ZM69.8063 100.947L72.7513 108.87H66.8613L69.8063 100.947ZM84.5839 114V100.89H83.4629V114H84.5839ZM99.057 100.89H97.936V113.943L91.305 100.89H88.987V114H90.108V100.947L96.739 114H99.057V100.89ZM101.725 100.89L106.608 114H108.888L113.771 100.89H112.593L107.748 113.943L102.903 100.89H101.725ZM123.943 113.031H117.559V107.711H123.62V106.742H117.559V101.859H123.791V100.89H116.438V114H123.943V113.031ZM127.547 114H128.668V108.262H131.537C131.727 108.262 131.898 108.262 132.088 108.243L135.413 114H136.705L133.266 108.11C135.299 107.692 136.458 106.514 136.458 104.576C136.458 102.144 134.615 100.89 131.537 100.89H127.547V114ZM131.632 101.859C133.779 101.859 135.261 102.562 135.261 104.576C135.261 106.571 133.779 107.312 131.632 107.312H128.668V101.859H131.632ZM149.317 110.561C149.317 108.642 148.082 107.502 145.517 106.837L143.75 106.381C141.66 105.849 140.653 105.279 140.653 104.044C140.653 102.657 141.945 101.669 143.978 101.669C146.163 101.669 147.588 102.866 147.759 104.785H148.899C148.69 102.353 146.866 100.7 143.902 100.7C141.318 100.7 139.456 102.182 139.456 104.082C139.456 105.925 140.824 106.856 143.237 107.464L145.061 107.939C147.056 108.452 148.101 109.288 148.101 110.561C148.101 112.366 146.543 113.221 144.396 113.221C142.211 113.221 140.425 111.53 140.273 109.383H139.133C139.323 111.967 141.299 114.19 144.434 114.19C147.398 114.19 149.317 112.86 149.317 110.561ZM153.854 114V100.89H152.733V114H153.854ZM163.578 99.94L166.219 97.375H164.623L162.552 99.94H163.578ZM169.601 107.445C169.601 103.816 167.131 100.7 163.483 100.7C159.835 100.7 157.365 103.816 157.365 107.445C157.365 111.074 159.835 114.19 163.483 114.19C167.131 114.19 169.601 111.074 169.601 107.445ZM158.562 107.445C158.562 103.892 160.842 101.669 163.483 101.669C166.124 101.669 168.404 103.892 168.404 107.445C168.404 110.998 166.124 113.221 163.483 113.221C160.842 113.221 158.562 110.998 158.562 107.445ZM183.185 100.89H182.064V113.943L175.433 100.89H173.115V114H174.236V100.947L180.867 114H183.185V100.89ZM200.518 113.031H194.134V107.711H200.195V106.742H194.134V101.859H200.366V100.89H193.013V114H200.518V113.031ZM214.193 100.89H213.072V113.943L206.441 100.89H204.123V114H205.244V100.947L211.875 114H214.193V100.89ZM92.4615 136.031H86.0775V130.711H92.1385V129.742H86.0775V124.859H92.3095V123.89H84.9565V137H92.4615V136.031ZM103.495 136.031H97.1866V123.89H96.0656V137H103.495V136.031ZM108.595 124.859H113.174V137H114.276V124.859H118.855V123.89H108.595V124.859ZM118.665 137H119.843L121.382 132.839H127.994L129.533 137H130.711L125.828 123.89H123.548L118.665 137ZM124.688 123.947L127.633 131.87H121.743L124.688 123.947ZM140.824 136.031H134.516V123.89H133.395V137H140.824V136.031ZM151.026 136.031H144.642V130.711H150.703V129.742H144.642V124.859H150.874V123.89H143.521V137H151.026V136.031ZM164.7 123.89H163.579V136.943L156.948 123.89H154.63V137H155.751V123.947L162.382 137H164.7V123.89ZM167.406 124.859H171.985V137H173.087V124.859H177.666V123.89H167.406V124.859ZM190.937 130.445C190.937 126.816 188.467 123.7 184.819 123.7C181.171 123.7 178.701 126.816 178.701 130.445C178.701 134.074 181.171 137.19 184.819 137.19C188.467 137.19 190.937 134.074 190.937 130.445ZM179.898 130.445C179.898 126.892 182.178 124.669 184.819 124.669C187.46 124.669 189.74 126.892 189.74 130.445C189.74 133.998 187.46 136.221 184.819 136.221C182.178 136.221 179.898 133.998 179.898 130.445Z" fill="#232323"/>
<circle cx="137.384" cy="105.384" r="103.884" stroke="#232323"/>
<path d="M33.2314 33.7947L0.91164 1.47487" stroke="#232323" stroke-linecap="round" stroke-linejoin="round"/>
<path d="M0.911637 33.7947L0.91164 1.47487L33.2314 1.47487" stroke="#232323" stroke-linecap="round" stroke-linejoin="round"/>
</svg>
